#N canvas 257 233 835 534 10;
#N canvas 886 196 450 300 echo 0;
#X obj 59 13 inlet~;
#X obj 47 207 outlet~;
#X obj 274 20 inlet;
#X obj 357 29 inlet;
#X obj 269 93 pow;
#X msg 275 65 2;
#X obj 270 115 * 125;
#X obj 356 73 sig~;
#X obj 84 51 *~;
#X obj 148 134 line~;
#X msg 148 111 \$1 \$1;
#X obj 138 156 vd~ \$0-echo 500;
#X obj 334 112 r snapper-bpm;
#X obj 328 147 t f f;
#X obj 329 215 /;
#X msg 150 30 clear;
#X obj 275 42 t b f f;
#X obj 83 73 delwrite~ \$0-echo 6000;
#X floatatom 327 255 5 0 0 0 - - -, f 5;
#X msg 310 181 7500;
#X connect 0 0 1 0;
#X connect 0 0 8 0;
#X connect 2 0 16 0;
#X connect 3 0 7 0;
#X connect 4 0 6 0;
#X connect 5 0 4 0;
#X connect 6 0 10 0;
#X connect 7 0 8 1;
#X connect 8 0 17 0;
#X connect 9 0 11 0;
#X connect 10 0 9 0;
#X connect 11 0 1 0;
#X connect 11 0 8 0;
#X connect 12 0 13 0;
#X connect 13 0 19 0;
#X connect 13 1 14 1;
#X connect 14 0 6 1;
#X connect 14 0 18 0;
#X connect 15 0 17 0;
#X connect 16 0 5 0;
#X connect 16 1 4 1;
#X connect 16 2 15 0;
#X connect 19 0 14 0;
#X restore 286 199 pd echo;
#N canvas 387 178 861 448 harmonies 0;
#X msg 355 302 \; harmony 0 44 56 60 63 65 68 70 72;
#X msg 455 137 \; harmony 0 48 55 60 62 64 67 69 72;
#X obj 357 197 loadbang;
#X obj 30 129 table harmony 8;
#X obj 228 119 inlet;
#X obj 237 383 s harmony-changed;
#X obj 221 148 t b f;
#X text 675 144 C Major Pentatonic;
#X text 576 314 Ab Major Pentatonic;
#X msg 355 338 \; harmony 0 41 48 53 58 60 65 69 72;
#X text 579 351 F Major Chord (Bb added);
#X obj 236 183 sel 0 1 2 3 4;
#X msg 355 373 \; harmony 0 47 49 52 54 56 59 61 64;
#X text 574 235 Eb Major Pentatonic;
#X text 576 381 E Pentatonic;
#X msg 358 229 \; harmony 0 46 48 55 60 63 65 67 70;
#X connect 2 0 1 0;
#X connect 4 0 6 0;
#X connect 6 0 5 0;
#X connect 6 1 11 0;
#X connect 11 0 1 0;
#X connect 11 1 15 0;
#X connect 11 2 0 0;
#X connect 11 3 9 0;
#X connect 11 4 12 0;
#X restore 155 348 pd harmonies;
#N canvas 107 234 573 394 reverb 0;
#X obj 91 30 inlet~;
#X obj 91 251 outlet~;
#X obj 159 253 outlet~;
#X obj 212 31 inlet;
#X obj 86 117 e_platereverb~;
#N canvas 1 62 450 300 xfade 0;
#X obj 103 102 inlet~;
#X obj 169 102 inlet~;
#X obj 100 258 outlet~;
#X obj 388 96 inlet;
#X obj 364 151 * 1.5708;
#X obj 293 191 expr cos($f1) \; sin($f1);
#X obj 225 143 line~;
#X msg 234 118 \$1 50;
#X obj 170 188 *~;
#X obj 101 187 *~;
#X obj 124 156 line~;
#X msg 133 131 \$1 50;
#X connect 0 0 9 0;
#X connect 1 0 8 0;
#X connect 3 0 4 0;
#X connect 4 0 5 0;
#X connect 5 0 11 0;
#X connect 5 1 7 0;
#X connect 6 0 8 1;
#X connect 7 0 6 0;
#X connect 8 0 2 0;
#X connect 9 0 2 0;
#X connect 10 0 9 1;
#X connect 11 0 10 0;
#X restore 89 216 pd xfade;
#N canvas 1 68 450 300 xfade 0;
#X obj 103 102 inlet~;
#X obj 169 102 inlet~;
#X obj 100 258 outlet~;
#X obj 388 96 inlet;
#X obj 364 151 * 1.5708;
#X obj 293 191 expr cos($f1) \; sin($f1);
#X obj 225 143 line~;
#X msg 234 118 \$1 50;
#X obj 170 188 *~;
#X obj 101 187 *~;
#X obj 124 156 line~;
#X msg 133 131 \$1 50;
#X connect 0 0 9 0;
#X connect 1 0 8 0;
#X connect 3 0 4 0;
#X connect 4 0 5 0;
#X connect 5 0 11 0;
#X connect 5 1 7 0;
#X connect 6 0 8 1;
#X connect 7 0 6 0;
#X connect 8 0 2 0;
#X connect 9 0 2 0;
#X connect 10 0 9 1;
#X connect 11 0 10 0;
#X restore 156 215 pd xfade;
#X obj 288 55 loadbang;
#X msg 289 80 0;
#X obj 208 57 t f f;
#X connect 0 0 4 0;
#X connect 0 0 4 1;
#X connect 0 0 6 0;
#X connect 0 0 5 0;
#X connect 3 0 9 0;
#X connect 4 0 5 1;
#X connect 4 1 6 1;
#X connect 5 0 1 0;
#X connect 6 0 2 0;
#X connect 7 0 8 0;
#X connect 8 0 9 0;
#X connect 9 0 5 2;
#X connect 9 1 6 2;
#X restore 288 294 pd reverb;
#N canvas 134 147 450 300 filter 0;
#X obj 162 75 inlet~;
#X obj 152 206 outlet~;
#X obj 154 176 e_reslop~;
#X obj 245 77 inlet;
#X msg 308 127 q 2;
#X msg 248 104 freq \$1;
#X connect 0 0 2 0;
#X connect 2 0 1 0;
#X connect 3 0 5 0;
#X connect 4 0 2 1;
#X connect 5 0 2 1;
#X restore 287 245 pd filter;
#X obj 83 10 loadbang;
#N canvas 656 256 373 378 metronome 0;
#X obj 82 116 inlet;
#X obj 32 243 s \$0-metro;
#X obj 71 195 r k-finetune;
#X obj 32 167 spigot;
#X obj 35 32 loadbang;
#X obj 32 218 pipe 0;
#X msg 35 61 connect 1 \, tempo 56 \, resolution 8;
#X obj 36 88 abl_link~ 1 0 4 56;
#X msg 197 113 \; snapper-bpm 56;
#X connect 0 0 3 1;
#X connect 2 0 5 1;
#X connect 3 0 5 0;
#X connect 4 0 6 0;
#X connect 4 0 8 0;
#X connect 5 0 1 0;
#X connect 6 0 7 0;
#X connect 7 0 3 0;
#X restore 583 94 pd metronome;
#N canvas 336 277 633 409 play-samples 0;
#X obj 312 256 outlet~;
#X obj 275 -18 inlet;
#X obj 416 -27 inlet;
#X obj 474 -34 loadbang;
#X msg 473 -10 0;
#X obj 297 229 catch~ player;
#X obj 443 27 s sampnum;
#X msg 244 15 \; player-\$1 \$2;
#X obj 79 89 sample-player 0;
#X obj 79 112 sample-player 1;
#X obj 79 133 sample-player 2;
#X obj 79 153 sample-player 3;
#X obj 194 91 sample-player 4;
#X obj 194 114 sample-player 5;
#X obj 194 135 sample-player 6;
#X obj 194 155 sample-player 7;
#X obj 307 90 sample-player 8;
#X obj 307 113 sample-player 9;
#X obj 307 134 sample-player 10;
#X obj 307 154 sample-player 11;
#X obj 422 92 sample-player 12;
#X obj 422 115 sample-player 13;
#X obj 422 136 sample-player 14;
#X obj 422 156 sample-player 15;
#X connect 1 0 7 0;
#X connect 2 0 6 0;
#X connect 3 0 4 0;
#X connect 4 0 6 0;
#X connect 5 0 0 0;
#X restore 286 80 pd play-samples;
#N canvas 385 164 450 300 volume 0;
#X obj 137 83 *~;
#X obj 177 83 *~;
#X obj 131 42 inlet~;
#X obj 175 42 inlet~;
#X obj 263 111 line~;
#X msg 263 88 \$1 30;
#X obj 263 42 clip 0 1;
#X obj 263 64 change;
#X obj 263 15 inlet;
#X obj 168 127 outlet~;
#X obj 106 128 outlet~;
#X connect 0 0 10 0;
#X connect 1 0 9 0;
#X connect 2 0 0 0;
#X connect 3 0 1 0;
#X connect 4 0 1 1;
#X connect 4 0 0 1;
#X connect 5 0 4 0;
#X connect 6 0 7 0;
#X connect 7 0 5 0;
#X connect 8 0 6 0;
#X restore 321 417 pd volume;
#X obj 338 448 dac~;
#X obj 583 61 r k-metro;
#X obj 372 393 r k-mastervol;
#N canvas 219 219 450 300 countdown 0;
#X obj 82 61 metro 1000;
#X obj 84 93 int;
#X obj 81 36 loadbang;
#X obj 165 95 - 1;
#X obj 117 93 max 0;
#X obj 163 35 tgl 15 0 empty empty empty 17 7 0 10 -262144 -1 -1 0
1;
#X obj 159 137 s countdown;
#X obj 254 7 r new-countdown;
#X msg 262 102 0;
#X obj 112 180 <= 0;
#X obj 113 209 sel 0 1;
#X obj 255 31 random 120;
#X obj 256 55 + 180;
#X msg 56 244 \; k-broadcast-gui color 13 12 12;
#X msg 259 242 \; k-broadcast-gui color 16 12 12;
#X connect 0 0 1 0;
#X connect 1 0 4 0;
#X connect 2 0 0 0;
#X connect 3 0 1 1;
#X connect 4 0 3 0;
#X connect 4 0 6 0;
#X connect 4 0 9 0;
#X connect 5 0 0 0;
#X connect 7 0 11 0;
#X connect 8 0 1 1;
#X connect 9 0 10 0;
#X connect 10 0 13 0;
#X connect 10 1 14 0;
#X connect 11 0 12 0;
#X connect 12 0 1 1;
#X restore 574 147 pd countdown;
#N canvas 28 237 654 371 network-connection 0;
#X obj 25 172 s k-tempo-gui;
#X obj 39 199 s k-soundbank-gui;
#X obj 59 227 s k-harmony-gui;
#X obj 78 255 s k-echotime-gui;
#X obj 152 177 s k-density-gui;
#X obj 167 202 s k-ringmod-gui;
#X obj 193 226 s k-echofeedback-gui;
#X obj 219 247 s k-filter-gui;
#X obj 303 199 s k-revmix-gui;
#X obj 25 122 unpack f f f f f f f f f f;
#X obj 221 54 netsend;
#X obj 221 79 tgl 15 0 empty empty empty 17 7 0 10 -262144 -1 -1 0
1;
#X obj 222 25 inlet;
#X obj 25 98 route /snapper;
#X msg 301 79 disconnect;
#X obj 262 173 s k-bitcrush-gui;
#X msg 14 279 \; lockout-countdown 15;
#X msg 283 31 disconnect \, connect \$1 13033;
#X obj 283 -15 spigot 1;
#X obj 278 106 == 0;
#X obj 283 -38 inlet;
#X obj 283 8 symbol;
#X obj 433 121 sel 0 1;
#X msg 443 189 \; connected 1 \, color 16 12 12;
#X msg 431 155 \; connected 0 \, color 13 12 12;
#X connect 9 0 0 0;
#X connect 9 0 16 0;
#X connect 9 1 1 0;
#X connect 9 2 2 0;
#X connect 9 3 3 0;
#X connect 9 4 4 0;
#X connect 9 5 5 0;
#X connect 9 6 6 0;
#X connect 9 7 7 0;
#X connect 9 8 15 0;
#X connect 9 9 8 0;
#X connect 10 0 11 0;
#X connect 10 1 13 0;
#X connect 11 0 19 0;
#X connect 11 0 22 0;
#X connect 12 0 10 0;
#X connect 13 0 9 0;
#X connect 14 0 10 0;
#X connect 17 0 10 0;
#X connect 18 0 21 0;
#X connect 19 0 18 1;
#X connect 20 0 18 0;
#X connect 21 0 17 0;
#X connect 22 0 24 0;
#X connect 22 1 23 0;
#X restore 573 191 pd network-connection;
#N canvas 416 203 743 300 broadcast-message 0;
#N canvas 90 350 450 300 controls-to-send 0;
#X obj 170 191 f;
#X obj 197 191 f;
#X obj 224 191 f;
#X obj 251 191 f;
#X obj 278 191 f;
#X obj 305 191 f;
#X obj 251 144 r k-filter;
#X obj 36 74 r k-tempo;
#X obj 50 101 r k-soundbank;
#X obj 70 129 r k-harmony;
#X obj 89 157 r k-echotime;
#X obj 184 74 r k-density;
#X obj 199 99 r k-ringmod;
#X obj 225 123 r k-echofeedback;
#X obj 332 103 r k-revmix;
#X obj 98 242 pack f f f f f f f f f f;
#X obj 35 191 f;
#X obj 62 191 f;
#X obj 89 191 f;
#X obj 116 191 f;
#X obj 99 271 outlet;
#X obj 27 15 inlet;
#X obj 28 47 t b b b b b b b b b b;
#X floatatom 345 176 5 0 0 0 - - -, f 5;
#X obj 291 77 r k-bitcrush;
#X connect 0 0 15 4;
#X connect 1 0 15 5;
#X connect 2 0 15 6;
#X connect 3 0 15 7;
#X connect 4 0 15 8;
#X connect 5 0 15 9;
#X connect 6 0 3 1;
#X connect 7 0 16 1;
#X connect 8 0 17 1;
#X connect 9 0 18 1;
#X connect 10 0 19 1;
#X connect 11 0 0 1;
#X connect 12 0 1 1;
#X connect 13 0 2 1;
#X connect 14 0 5 1;
#X connect 14 0 23 0;
#X connect 15 0 20 0;
#X connect 16 0 15 0;
#X connect 17 0 15 1;
#X connect 18 0 15 2;
#X connect 19 0 15 3;
#X connect 21 0 22 0;
#X connect 22 0 16 0;
#X connect 22 1 17 0;
#X connect 22 2 18 0;
#X connect 22 3 19 0;
#X connect 22 4 0 0;
#X connect 22 5 1 0;
#X connect 22 6 2 0;
#X connect 22 7 3 0;
#X connect 22 8 4 0;
#X connect 22 9 5 0;
#X connect 24 0 4 1;
#X restore 367 154 pd controls-to-send;
#X obj 350 100 spigot;
#X obj 416 79 <= 0;
#X obj 413 55 r countdown;
#X obj 351 124 t b b;
#X obj 252 148 s new-countdown;
#X msg 254 178 send /snapper \$1 \$2 \$3 \$4 \$5 \$6 \$7 \$8 \$9 \$10
;
#X obj 62 249 outlet;
#X obj 352 34 lockout k-broadcast;
#X connect 0 0 6 0;
#X connect 1 0 4 0;
#X connect 2 0 1 1;
#X connect 3 0 2 0;
#X connect 4 0 5 0;
#X connect 4 1 0 0;
#X connect 6 0 7 0;
#X connect 8 0 1 0;
#X restore 573 169 pd broadcast-message;
#N canvas 1 58 450 300 pvu 0;
#X obj 107 29 inlet~;
#X obj 107 101 s pvu-L;
#X obj 107 53 env~ 1024;
#X obj 107 77 - 100;
#X obj 179 29 inlet~;
#X obj 179 53 env~ 1024;
#X obj 179 77 - 100;
#X obj 179 101 s pvu-R;
#X connect 0 0 2 0;
#X connect 2 0 3 0;
#X connect 3 0 1 0;
#X connect 4 0 5 0;
#X connect 5 0 6 0;
#X connect 6 0 7 0;
#X restore 264 449 pd pvu;
#N canvas 372 322 713 349 route-midi 0;
#X obj 18 16 nanokontrol;
#X obj 40 41 r /nanoKontrol/slider/1;
#X obj 39 90 s k-density-gui;
#X obj 217 38 r /nanoKontrol/slider/2;
#X obj 216 90 s k-ringmod-gui;
#X obj 53 212 r /nanoKontrol/r/1;
#X obj 49 240 sel 127;
#X obj 50 263 s k-densityreset-gui;
#X obj 216 143 r /nanoKontrol/knob/1;
#X obj 216 211 s k-tempo-gui;
#X obj 217 190 int;
#X obj 218 165 j_map 0 127 0 4;
#X obj 218 64 j_map 0 127 0 0.95;
#X obj 368 191 int;
#X obj 367 144 r /nanoKontrol/knob/2;
#X obj 369 166 j_map 0 127 0 3;
#X obj 367 212 s k-soundbank-gui;
#X obj 506 191 int;
#X obj 505 144 r /nanoKontrol/knob/3;
#X obj 507 166 j_map 0 127 0 4;
#X obj 505 212 s k-harmony-gui;
#X obj 376 35 r /nanoKontrol/slider/3;
#X obj 377 82 int;
#X obj 375 103 s k-echotime-gui;
#X obj 377 61 j_map 0 127 6 0;
#X obj 526 35 r /nanoKontrol/slider/4;
#X obj 527 61 j_map 0 127 0 0.95;
#X obj 525 103 s k-echofeedback-gui;
#X obj 685 34 r /nanoKontrol/slider/5;
#X obj 684 102 s k-filter-gui;
#X obj 671 141 r /nanoKontrol/slider/8;
#X obj 670 209 s k-mastervol-gui;
#X obj 351 247 r /nanoKontrol/play;
#X obj 350 272 sel 127;
#X msg 349 295 \; k-metro-gui 1;
#X obj 486 266 sel 127;
#X obj 488 241 r /nanoKontrol/stop;
#X msg 485 289 \; k-metro-gui 0;
#X obj 617 268 sel 127;
#X obj 619 243 r /nanoKontrol/cycle;
#X obj 618 294 s k-broadcast-gui;
#X obj 672 167 j_map 0 127 0 0.9;
#X obj 686 60 j_map 0 127 800 8000;
#X obj 847 104 s k-revmix-gui;
#X obj 849 62 j_map 0 127 0 1;
#X obj 848 36 r /nanoKontrol/slider/7;
#X obj 848 187 r /nanoKontrol/slider/6;
#X obj 847 255 s k-bitcrush-gui;
#X obj 39 69 j_map 0 127 10 1;
#X obj 849 213 j_map 0 127 16 1;
#X connect 1 0 48 0;
#X connect 3 0 12 0;
#X connect 5 0 6 0;
#X connect 6 0 7 0;
#X connect 8 0 11 0;
#X connect 10 0 9 0;
#X connect 11 0 10 0;
#X connect 12 0 4 0;
#X connect 13 0 16 0;
#X connect 14 0 15 0;
#X connect 15 0 13 0;
#X connect 17 0 20 0;
#X connect 18 0 19 0;
#X connect 19 0 17 0;
#X connect 21 0 24 0;
#X connect 22 0 23 0;
#X connect 24 0 22 0;
#X connect 25 0 26 0;
#X connect 26 0 27 0;
#X connect 28 0 42 0;
#X connect 30 0 41 0;
#X connect 32 0 33 0;
#X connect 33 0 34 0;
#X connect 35 0 37 0;
#X connect 36 0 35 0;
#X connect 38 0 40 0;
#X connect 39 0 38 0;
#X connect 41 0 31 0;
#X connect 42 0 29 0;
#X connect 44 0 43 0;
#X connect 45 0 44 0;
#X connect 46 0 49 0;
#X connect 48 0 2 0;
#X connect 49 0 47 0;
#X restore 576 227 pd route-midi;
#N canvas 709 195 450 300 bitcrush 0;
#X obj 153 51 inlet~;
#X obj 231 47 inlet;
#X obj 165 270 outlet~;
#X obj 160 182 e_bitcrusher snapper-bitcrush;
#X msg 304 148 depth \$1;
#N canvas 1 74 450 300 xfade 0;
#X obj 103 102 inlet~;
#X obj 169 102 inlet~;
#X obj 100 258 outlet~;
#X obj 388 96 inlet;
#X obj 364 151 * 1.5708;
#X obj 293 191 expr cos($f1) \; sin($f1);
#X obj 225 143 line~;
#X msg 234 118 \$1 50;
#X obj 170 188 *~;
#X obj 101 187 *~;
#X obj 124 156 line~;
#X msg 133 131 \$1 50;
#X connect 0 0 9 0;
#X connect 1 0 8 0;
#X connect 3 0 4 0;
#X connect 4 0 5 0;
#X connect 5 0 11 0;
#X connect 5 1 7 0;
#X connect 6 0 8 1;
#X connect 7 0 6 0;
#X connect 8 0 2 0;
#X connect 9 0 2 0;
#X connect 10 0 9 1;
#X connect 11 0 10 0;
#X restore 143 230 pd xfade;
#X obj 228 210 sel 16;
#X msg 227 237 0;
#X msg 261 237 1;
#X connect 0 0 3 0;
#X connect 0 0 5 0;
#X connect 1 0 4 0;
#X connect 1 0 6 0;
#X connect 3 0 5 1;
#X connect 4 0 3 1;
#X connect 5 0 2 0;
#X connect 6 0 7 0;
#X connect 6 1 8 0;
#X connect 7 0 5 2;
#X connect 8 0 5 2;
#X restore 285 135 pd bitcrush;
#N canvas 1 59 450 300 get-server-ip 0;
#X obj 147 83 netreceive -u 13034;
#X obj 146 116 outlet;
#X connect 0 0 1 0;
#X restore 709 109 pd get-server-ip;
#N canvas 1 81 700 397 apply-harmony 0;
#X obj 107 22 r harmony-changed;
#X obj 108 58 t b b;
#X msg 133 91 0;
#X msg 105 90 8;
#X obj 104 120 until;
#X obj 108 149 int;
#X obj 205 148 + 1;
#X obj 139 175 tabread harmony;
#X obj 138 149 t f f f;
#X obj 138 203 pack;
#X obj 516 40 catch~ harmony-synth;
#X obj 241 27 loadbang;
#X obj 242 53 del 50;
#X obj 404 39 phasor~;
#N canvas 409 195 450 300 melody 0;
#X floatatom 178 148 5 0 0 0 - - -, f 5;
#X obj 178 202 mtof;
#X obj 178 105 tabread harmony;
#X obj 178 126 change;
#X obj 178 83 random 8;
#X obj 178 31 r \$0-metro;
#X obj 178 229 outlet;
#X obj 178 171 + 24;
#X msg 179 56 bang;
#X connect 0 0 7 0;
#X connect 1 0 6 0;
#X connect 2 0 3 0;
#X connect 3 0 0 0;
#X connect 4 0 2 0;
#X connect 5 0 8 0;
#X connect 7 0 1 0;
#X connect 8 0 4 0;
#X restore 404 12 pd melody;
#X obj 485 140 +~;
#X obj 486 171 outlet~;
#X obj 405 94 -~ 0.5;
#X obj 515 65 /~ 16;
#X obj 403 258 harmony-synth 0;
#X msg 138 229 \; harmony-synth-\$1 \$2;
#X obj 403 278 harmony-synth 1;
#X obj 404 299 harmony-synth 2;
#X obj 404 319 harmony-synth 3;
#X obj 503 259 harmony-synth 4;
#X obj 503 279 harmony-synth 5;
#X obj 504 300 harmony-synth 6;
#X obj 504 320 harmony-synth 7;
#X connect 0 0 1 0;
#X connect 1 0 3 0;
#X connect 1 1 2 0;
#X connect 2 0 5 1;
#X connect 3 0 4 0;
#X connect 4 0 5 0;
#X connect 5 0 8 0;
#X connect 6 0 5 1;
#X connect 7 0 9 1;
#X connect 8 0 9 0;
#X connect 8 1 7 0;
#X connect 8 2 6 0;
#X connect 9 0 20 0;
#X connect 10 0 18 0;
#X connect 11 0 12 0;
#X connect 12 0 1 0;
#X connect 13 0 17 0;
#X connect 14 0 13 0;
#X connect 15 0 16 0;
#X connect 17 0 15 0;
#X connect 18 0 15 1;
#X restore 372 304 pd apply-harmony;
#N canvas 1 113 710 390 vocode 0;
#X obj 81 33 inlet~;
#X obj 204 311 outlet~;
#N canvas 1 74 450 300 xfade 0;
#X obj 103 102 inlet~;
#X obj 169 102 inlet~;
#X obj 100 258 outlet~;
#X obj 388 96 inlet;
#X obj 364 151 * 1.5708;
#X obj 293 191 expr cos($f1) \; sin($f1);
#X obj 225 143 line~;
#X msg 234 118 \$1 50;
#X obj 170 188 *~;
#X obj 101 187 *~;
#X obj 124 156 line~;
#X msg 133 131 \$1 50;
#X connect 0 0 9 0;
#X connect 1 0 8 0;
#X connect 3 0 4 0;
#X connect 4 0 5 0;
#X connect 5 0 11 0;
#X connect 5 1 7 0;
#X connect 6 0 8 1;
#X connect 7 0 6 0;
#X connect 8 0 2 0;
#X connect 9 0 2 0;
#X connect 10 0 9 1;
#X connect 11 0 10 0;
#X restore 178 263 pd xfade;
#X obj 380 120 inlet;
#X obj 203 108 inlet~;
#X obj 200 201 e_vocoder myvocoderL;
#X obj 378 156 * 100;
#X connect 0 0 2 0;
#X connect 0 0 5 1;
#X connect 2 0 1 0;
#X connect 3 0 2 2;
#X connect 3 0 6 0;
#X connect 4 0 5 0;
#X connect 5 0 2 1;
#X connect 6 0 5 2;
#X restore 289 350 pd vocode;
#N canvas 1 101 710 390 vocode 0;
#X obj 81 33 inlet~;
#X obj 204 311 outlet~;
#N canvas 1 74 450 300 xfade 0;
#X obj 103 102 inlet~;
#X obj 169 102 inlet~;
#X obj 100 258 outlet~;
#X obj 388 96 inlet;
#X obj 364 151 * 1.5708;
#X obj 293 191 expr cos($f1) \; sin($f1);
#X obj 225 143 line~;
#X msg 234 118 \$1 50;
#X obj 170 188 *~;
#X obj 101 187 *~;
#X obj 124 156 line~;
#X msg 133 131 \$1 50;
#X connect 0 0 9 0;
#X connect 1 0 8 0;
#X connect 3 0 4 0;
#X connect 4 0 5 0;
#X connect 5 0 11 0;
#X connect 5 1 7 0;
#X connect 6 0 8 1;
#X connect 7 0 6 0;
#X connect 8 0 2 0;
#X connect 9 0 2 0;
#X connect 10 0 9 1;
#X connect 11 0 10 0;
#X restore 178 263 pd xfade;
#X obj 380 120 inlet;
#X obj 201 172 inlet~;
#X obj 200 201 e_vocoder myvocoderR;
#X obj 378 156 * 100;
#X connect 0 0 2 0;
#X connect 0 0 5 1;
#X connect 2 0 1 0;
#X connect 3 0 2 2;
#X connect 3 0 6 0;
#X connect 4 0 5 0;
#X connect 5 0 2 1;
#X connect 6 0 5 2;
#X restore 358 350 pd vocode;
#N canvas 640 330 262 437 turing-machine 1;
#X obj 86 18 r \$0-metro;
#X obj 81 268 outlet;
#N canvas 450 136 850 367 register-shift 0;
#X obj 404 133 table \$0-register 16;
#X obj 90 96 int;
#X obj 157 97 + 1;
#X obj 184 97 % 16;
#X obj 116 97 t f f;
#N canvas 581 203 589 315 show-register 0;
#X obj 349 91 until;
#X msg 349 62 16;
#X obj 368 125 int;
#X obj 459 126 + 1;
#X msg 392 92 0;
#X obj 394 126 t f f f;
#X obj 378 164 tabread \$0-register;
#X obj 382 192 pack f f f;
#X obj 511 91 f \$0;
#X obj 510 61 loadbang;
#X obj 51 101 tgl 15 0 nada \$0-tog-0 empty 17 7 0 10 -262144 -1 -1
0 1;
#X msg 386 218 \; \$3-tog-\$2 \$1;
#X obj 66 101 tgl 15 0 nada \$0-tog-1 empty 17 7 0 10 -262144 -1 -1
0 1;
#X obj 81 101 tgl 15 0 nada \$0-tog-2 empty 17 7 0 10 -262144 -1 -1
1 1;
#X obj 96 101 tgl 15 0 nada \$0-tog-3 empty 17 7 0 10 -262144 -1 -1
0 1;
#X obj 111 101 tgl 15 0 nada \$0-tog-4 empty 17 7 0 10 -262144 -1 -1
1 1;
#X obj 126 101 tgl 15 0 nada \$0-tog-5 empty 17 7 0 10 -262144 -1 -1
0 1;
#X obj 141 101 tgl 15 0 nada \$0-tog-6 empty 17 7 0 10 -262144 -1 -1
0 1;
#X obj 156 101 tgl 15 0 nada \$0-tog-7 empty 17 7 0 10 -262144 -1 -1
0 1;
#X obj 171 101 tgl 15 0 nada \$0-tog-8 empty 17 7 0 10 -262144 -1 -1
1 1;
#X obj 186 101 tgl 15 0 nada \$0-tog-9 empty 17 7 0 10 -262144 -1 -1
1 1;
#X obj 201 101 tgl 15 0 nada \$0-tog-10 empty 17 7 0 10 -262144 -1
-1 1 1;
#X obj 216 101 tgl 15 0 nada \$0-tog-11 empty 17 7 0 10 -262144 -1
-1 0 1;
#X obj 231 101 tgl 15 0 nada \$0-tog-12 empty 17 7 0 10 -262144 -1
-1 1 1;
#X obj 246 101 tgl 15 0 nada \$0-tog-13 empty 17 7 0 10 -262144 -1
-1 0 1;
#X obj 261 101 tgl 15 0 nada \$0-tog-14 empty 17 7 0 10 -262144 -1
-1 1 1;
#X obj 276 101 tgl 15 0 nada \$0-tog-15 empty 17 7 0 10 -262144 -1
-1 0 1;
#X obj 353 29 t b b;
#X obj 354 4 inlet;
#X connect 0 0 2 0;
#X connect 1 0 0 0;
#X connect 2 0 5 0;
#X connect 3 0 2 1;
#X connect 4 0 2 1;
#X connect 5 0 6 0;
#X connect 5 1 7 1;
#X connect 5 2 3 0;
#X connect 6 0 7 0;
#X connect 7 0 11 0;
#X connect 8 0 7 2;
#X connect 9 0 8 0;
#X connect 27 0 1 0;
#X connect 27 1 4 0;
#X connect 28 0 27 0;
#X coords 0 -1 1 1 242 17 2 50 100;
#X restore 344 60 pd show-register;
#N canvas 501 224 450 300 change-bit 0;
#X obj 158 166 tabread \$0-register;
#X obj 162 135 t f f;
#X obj 143 235 tabwrite \$0-register;
#X obj 158 194 == 0;
#X msg 171 81 bang;
#X obj 168 50 inlet;
#X obj 168 107 random 16;
#X obj 217 57 r \$0-sequence-length;
#X obj 217 79 + 1;
#X connect 0 0 3 0;
#X connect 1 0 0 0;
#X connect 1 1 2 1;
#X connect 3 0 2 0;
#X connect 4 0 6 0;
#X connect 5 0 4 0;
#X connect 6 0 1 0;
#X connect 7 0 8 0;
#X connect 8 0 6 1;
#X restore 690 281 pd change-bit;
#X obj 90 17 inlet;
#X obj 116 288 outlet;
#X obj 732 179 inlet;
#X obj 116 265 pack;
#N canvas 1 81 299 534 register-to-8bit 0;
#X obj 75 95 inlet;
#X msg 74 149 8;
#X obj 74 173 until;
#X obj 76 200 int;
#X obj 105 201 + 1;
#X obj 130 282 tabread \$0-register;
#X obj 132 230 +;
#X obj 131 257 % 16;
#X obj 131 307 <<;
#X obj 137 202 t f f f;
#X obj 134 336 +;
#X msg 167 311 0;
#X obj 165 336 t f f;
#X obj 165 407 f;
#X obj 74 121 t b b b b f;
#X msg 105 147 -1;
#X obj 164 432 outlet;
#X connect 0 0 14 0;
#X connect 1 0 2 0;
#X connect 2 0 3 0;
#X connect 3 0 4 0;
#X connect 4 0 9 0;
#X connect 5 0 8 0;
#X connect 6 0 7 0;
#X connect 7 0 5 0;
#X connect 8 0 10 0;
#X connect 9 0 6 0;
#X connect 9 1 8 1;
#X connect 9 2 3 1;
#X connect 10 0 12 0;
#X connect 11 0 10 1;
#X connect 12 0 13 1;
#X connect 12 1 10 1;
#X connect 13 0 16 0;
#X connect 14 0 13 0;
#X connect 14 1 1 0;
#X connect 14 2 11 0;
#X connect 14 3 15 0;
#X connect 14 4 6 1;
#X connect 15 0 3 1;
#X restore 155 212 pd register-to-8bit;
#X obj 310 185 r sampnum;
#X obj 310 224 sel 0 1 2 3;
#X msg 300 256 144;
#X obj 155 237 % 144;
#X msg 332 257 69;
#X msg 364 257 38;
#X msg 400 261 60;
#X obj 618 165 r \$0-metro;
#X msg 659 197 bang;
#X obj 116 120 t f f;
#X obj 690 254 moses 50;
#X obj 690 232 random 50;
#X connect 1 0 4 0;
#X connect 2 0 3 0;
#X connect 3 0 1 1;
#X connect 4 0 21 0;
#X connect 4 1 2 0;
#X connect 7 0 1 0;
#X connect 7 0 5 0;
#X connect 9 0 22 1;
#X connect 10 0 8 0;
#X connect 11 0 15 0;
#X connect 12 0 13 0;
#X connect 13 0 14 0;
#X connect 13 1 16 0;
#X connect 13 2 17 0;
#X connect 13 3 18 0;
#X connect 14 0 15 1;
#X connect 15 0 10 1;
#X connect 16 0 15 1;
#X connect 17 0 15 1;
#X connect 18 0 15 1;
#X connect 19 0 20 0;
#X connect 20 0 23 0;
#X connect 21 0 10 0;
#X connect 21 1 11 0;
#X connect 22 0 6 0;
#X connect 23 0 22 0;
#X restore 81 181 pd register-shift;
#X obj 179 152 inlet;
#X obj 161 9 lockout k-tempo;
#N canvas 1 81 450 300 euclid 0;
#X obj 49 68 inlet;
#X obj 106 131 inlet;
#X obj 49 267 select 1;
#X obj 49 299 outlet;
#X text 145 130 specify desired number of hits per bar;
#X text 88 66 <-- send an integer to find out if there should be a
hit on that beat;
#X text 48 379 Generates 'euclidean rhythms' (see cgm.cs.mcgill.ca/~godfried/publications/banff.pdf).
Ideally to be used with a [metro]-powered [f ]x[+ 1] counter attached
to the first inlet. Hits per bar \, offset and bar length can be set
by the first three arguments respectively.;
#X text 111 266 <-- bang out on each hit. (Silent on rest.);
#X obj 49 137 + \$2;
#X obj 49 169 * \$1;
#X obj 49 235 < \$1;
#X obj 133 156 inlet;
#X text 167 155 rhythm offset/rotation;
#X obj 49 202 % 32;
#X connect 0 0 8 0;
#X connect 1 0 9 1;
#X connect 1 0 10 1;
#X connect 2 0 3 0;
#X connect 8 0 9 0;
#X connect 9 0 13 0;
#X connect 10 0 2 0;
#X connect 11 0 8 1;
#X connect 13 0 10 0;
#X restore 70 124 pd euclid;
#X obj 160 35 + 0.5;
#X obj 157 64 int;
#X connect 0 0 5 0;
#X connect 2 0 1 0;
#X connect 3 0 2 1;
#X connect 4 0 6 0;
#X connect 5 0 2 0;
#X connect 6 0 7 0;
#X connect 7 0 5 1;
#X restore 286 53 pd turing-machine;
#X obj 286 27 lockout k-density;
#X obj 411 53 lockout k-soundbank;
#X obj 348 112 lockout k-bitcrush;
#X obj 305 178 lockout k-echotime;
#X obj 325 157 lockout k-echofeedback;
#X obj 339 270 lockout k-revmix;
#X obj 338 222 lockout k-filter;
#X obj 409 327 lockout k-ringmod;
#X obj 155 327 lockout k-harmony;
#X msg 82 32 \; k-density-gui 4 \; k-tempo-gui 1 \; k-echotime-gui
4 \; k-filter-gui 8000 \; k-bitcrush-gui 16 \; k-revmix-gui 0 \; k-ringmod-gui
0 \; k-harmony-gui 1 \; k-metro-gui 1 \; k-mastervol-gui 1 \; connected
color 13 12 12 \; pd dsp 1;
#X connect 0 0 3 0;
#X connect 2 0 19 0;
#X connect 2 1 20 0;
#X connect 3 0 2 0;
#X connect 4 0 31 0;
#X connect 6 0 16 0;
#X connect 7 0 8 0;
#X connect 7 0 14 0;
#X connect 7 1 8 1;
#X connect 7 1 14 1;
#X connect 9 0 5 0;
#X connect 10 0 7 2;
#X connect 13 0 12 0;
#X connect 16 0 0 0;
#X connect 17 0 12 1;
#X connect 18 0 19 1;
#X connect 18 0 20 1;
#X connect 19 0 7 0;
#X connect 20 0 7 1;
#X connect 21 0 6 0;
#X connect 22 0 21 0;
#X connect 23 0 6 1;
#X connect 24 0 16 1;
#X connect 25 0 0 1;
#X connect 26 0 0 2;
#X connect 27 0 2 1;
#X connect 28 0 3 1;
#X connect 29 0 20 2;
#X connect 29 0 19 2;
#X connect 30 0 1 0;
