#N canvas 1 89 474 440 10;
#X obj 219 24 r sampnum;
#X obj 151 267 throw~ player;
#X obj 160 75 f;
#X obj 160 53 t b f;
#X obj 139 24 r player-\$1;
#X obj 151 235 readsf~;
#X msg 151 206 open \$1/\$2.wav \, 1;
#X obj 161 104 sel 0 1 2 3;
#X msg 151 141 liq;
#X msg 183 141 urb;
#X msg 216 142 mod;
#X msg 249 142 voc;
#X obj 187 78 + 1;
#X obj 151 176 pack symbol 1;
#X connect 0 0 2 1;
#X connect 2 0 7 0;
#X connect 3 0 2 0;
#X connect 3 1 12 0;
#X connect 4 0 3 0;
#X connect 5 0 1 0;
#X connect 6 0 5 0;
#X connect 7 0 8 0;
#X connect 7 1 9 0;
#X connect 7 2 10 0;
#X connect 7 3 11 0;
#X connect 8 0 13 0;
#X connect 9 0 13 0;
#X connect 10 0 13 0;
#X connect 11 0 13 0;
#X connect 12 0 13 1;
#X connect 13 0 6 0;
