#N canvas 219 86 936 384 10;
#N canvas 1 78 450 300 setup 0;
#X obj 45 39 loadbang;
#X obj 47 105 array define test-section 10;
#X obj 45 65 s make-random;
#X connect 0 0 2 0;
#X restore 10 320 pd setup;
#N canvas 1 88 516 480 make-list 0;
#X obj 27 55 r box1-s;
#X obj 101 49 r box2-s;
#X obj 101 72 t b f;
#X obj 124 119 t b f;
#X obj 172 69 t b f;
#X obj 195 116 t b f;
#X obj 245 68 t b f;
#X obj 268 115 t b f;
#X obj 316 65 t b f;
#X obj 339 112 t b f;
#X obj 337 165 t b f;
#X obj 101 324 pack f f f f f f f f f f;
#X obj 124 96 r box3-s;
#X obj 172 46 r box4-s;
#X obj 195 93 r box5-s;
#X obj 245 45 r box6-s;
#X obj 268 92 r box7-s;
#X obj 316 42 r box8-s;
#X obj 339 89 r box9-s;
#X obj 337 142 r box10-s;
#X obj 104 364 array set test-section;
#X connect 0 0 11 0;
#X connect 1 0 2 0;
#X connect 2 0 11 0;
#X connect 2 1 11 1;
#X connect 3 0 11 0;
#X connect 3 1 11 2;
#X connect 4 0 11 0;
#X connect 4 1 11 3;
#X connect 5 0 11 0;
#X connect 5 1 11 4;
#X connect 6 0 11 0;
#X connect 6 1 11 5;
#X connect 7 0 11 0;
#X connect 7 1 11 6;
#X connect 8 0 11 0;
#X connect 8 1 11 7;
#X connect 9 0 11 0;
#X connect 9 1 11 8;
#X connect 10 0 11 0;
#X connect 10 1 11 9;
#X connect 11 0 20 0;
#X connect 12 0 3 0;
#X connect 13 0 4 0;
#X connect 14 0 5 0;
#X connect 15 0 6 0;
#X connect 16 0 7 0;
#X connect 17 0 8 0;
#X connect 18 0 9 0;
#X connect 19 0 10 0;
#X restore 97 321 pd make-list;
#X obj 292 104 bng 15 250 50 0 make-random empty empty 17 7 0 10 -262144
-1 -1;
#X obj 292 140 bng 15 250 50 0 play-set empty empty 17 7 0 10 -262144
-1 -1;
#X text 311 103 make random set;
#X text 311 138 play set;
#X obj 44 117 vradio 15 1 0 6 set-test-section empty empty 0 -8 0 10
-262144 -1 -1 0;
#N canvas 1 83 524 415 make-random 0;
#X obj 169 198 int;
#X obj 195 198 + 1;
#X msg 228 162 0;
#X obj 170 163 until;
#X msg 169 139 10;
#X obj 171 114 t b b;
#X obj 219 198 t f f b;
#X obj 350 261 random 130;
#X obj 350 286 + 1;
#X obj 211 258 pack f f;
#X msg 188 293 \; box\$1-r \$2;
#X obj 171 42 r make-random;
#X connect 0 0 1 0;
#X connect 1 0 6 0;
#X connect 2 0 0 1;
#X connect 3 0 0 0;
#X connect 4 0 3 0;
#X connect 5 0 4 0;
#X connect 5 1 2 0;
#X connect 6 0 0 1;
#X connect 6 1 9 0;
#X connect 6 2 7 0;
#X connect 7 0 8 0;
#X connect 8 0 9 1;
#X connect 9 0 10 0;
#X connect 11 0 5 0;
#X restore 189 319 pd make-random;
#X text 34 97 section;
#N canvas 515 141 513 429 play-set 0;
#X obj 150 329 pack;
#X msg 172 372 \; rotate-gamelan-\$1 \$2;
#X obj 121 216 int;
#X obj 148 217 + 1;
#X obj 119 180 delay 500;
#X msg 143 143 -1;
#X obj 177 217 moses 10;
#X msg 298 208 \; box\$1-r color 0 22 0;
#X obj 175 240 t b f f f f f;
#X obj 298 183 moses 1;
#X obj 252 260 + 1;
#X msg 297 245 \; box\$1-r color 16 22 0;
#X obj 128 99 r play-set;
#X obj 203 289 array get test-section;
#X obj 282 317 unpack;
#X connect 0 0 1 0;
#X connect 2 0 3 0;
#X connect 3 0 6 0;
#X connect 4 0 2 0;
#X connect 5 0 2 0;
#X connect 6 0 8 0;
#X connect 6 1 7 0;
#X connect 8 0 4 0;
#X connect 8 1 2 1;
#X connect 8 2 0 0;
#X connect 8 3 13 0;
#X connect 8 4 10 0;
#X connect 8 5 9 0;
#X connect 9 1 7 0;
#X connect 10 0 11 0;
#X connect 12 0 5 0;
#X connect 13 0 14 0;
#X connect 14 0 0 1;
#X restore 214 287 pd play-set;
#X obj 40 40 nbx 5 14 1 130 0 0 box1-s box1-r empty 0 -8 0 10 -262144
-1 -262144 76 256;
#X obj 100 40 nbx 5 14 1 130 0 0 box2-s box2-r empty 0 -8 0 10 -262144
-1 -262144 105 256;
#X obj 160 40 nbx 5 14 1 130 0 0 box3-s box3-r empty 0 -8 0 10 -262144
-1 -262144 50 256;
#X obj 220 40 nbx 5 14 1 130 0 0 box4-s box4-r empty 0 -8 0 10 -262144
-1 -262144 26 256;
#X obj 280 40 nbx 5 14 1 130 0 0 box5-s box5-r empty 0 -8 0 10 -262144
-1 -262144 17 256;
#X obj 340 40 nbx 5 14 1 130 0 0 box6-s box6-r empty 0 -8 0 10 -262144
-1 -262144 11 256;
#X obj 400 40 nbx 5 14 1 130 0 0 box7-s box7-r empty 0 -8 0 10 -262144
-1 -262144 71 256;
#X obj 460 40 nbx 5 14 1 130 0 0 box8-s box8-r empty 0 -8 0 10 -262144
-1 -262144 101 256;
#X obj 520 40 nbx 5 14 1 130 0 0 box9-s box9-r empty 0 -8 0 10 -262144
-1 -262144 15 256;
#X obj 580 40 nbx 5 14 1 130 0 0 box10-s box10-r empty 0 -8 0 10 -262144
-1 -262144 81 256;
#X obj 507 163 text get presets;
#X floatatom 502 124 5 0 5 0 - - -, f 5;
#X obj 495 200 print;
#N canvas 1 58 450 300 manage-preset-file 0;
#X obj 57 157 text define presets;
#X obj 57 111 openpanel;
#X msg 57 83 bang;
#X msg 137 83 bang;
#X obj 137 111 savepanel;
#X msg 57 134 read \$1;
#X msg 137 134 write \$1;
#X obj 308 86 r set-test-section;
#X obj 277 109 text set presets;
#X obj 277 63 array get test-section;
#X msg 277 40 bang;
#X connect 1 0 5 0;
#X connect 2 0 1 0;
#X connect 3 0 4 0;
#X connect 4 0 6 0;
#X connect 5 0 0 0;
#X connect 6 0 0 0;
#X connect 7 0 8 1;
#X connect 9 0 8 0;
#X connect 10 0 9 0;
#X restore 70 289 pd manage-preset-file;
#X connect 20 0 22 0;
#X connect 21 0 20 0;
