#N canvas 273 344 162 264 10;
#X declare -path .;
#X declare -path internals;
#X declare -path ../SyncJams/pure-data;
#N canvas 1 73 539 300 instruments 0;
#X obj 108 162 gamelan-tables;
#X obj 63 55 gamelan-play 1;
#X obj 62 76 gamelan-play 2;
#X obj 63 97 gamelan-play 3;
#X obj 62 118 gamelan-play 4;
#X obj 62 138 gamelan-play 5;
#X obj 154 55 gamelan-play 6;
#X obj 153 76 gamelan-play 7;
#X obj 154 97 gamelan-play 8;
#X obj 153 118 gamelan-play 9;
#X obj 153 138 gamelan-play 0;
#X obj 268 150 dac~;
#X obj 272 56 catch~ gamelan-out;
#X obj 271 124 *~ 0.1;
#X obj 272 98 *~;
#X obj 316 95 line~;
#X obj 396 43 r mastervol;
#X msg 396 71 \$1 50;
#N canvas 667 159 456 332 fill-sections-randomly 0;
#X obj 141 38 until;
#X msg 142 15 6;
#X obj 141 64 int;
#X obj 172 66 + 1;
#X msg 185 17 0;
#X obj 119 125 random 130;
#X obj 66 30 t b b;
#X obj 68 9 inlet;
#X obj 141 207 pack f f f f f f f f f f;
#X obj 130 275 array set section-1;
#X msg 412 164 symbol section-\$1;
#X obj 201 67 t f b b b b b b b b b b f;
#X obj 130 146 random 130;
#X obj 143 168 random 130;
#X obj 189 124 random 130;
#X obj 200 145 random 130;
#X obj 213 167 random 130;
#X obj 260 124 random 130;
#X obj 271 145 random 130;
#X obj 284 167 random 130;
#X obj 331 123 random 130;
#X connect 0 0 2 0;
#X connect 1 0 0 0;
#X connect 2 0 3 0;
#X connect 3 0 11 0;
#X connect 4 0 2 1;
#X connect 5 0 8 0;
#X connect 6 0 1 0;
#X connect 6 1 4 0;
#X connect 7 0 6 0;
#X connect 8 0 9 0;
#X connect 10 0 9 2;
#X connect 11 0 2 1;
#X connect 11 1 5 0;
#X connect 11 2 12 0;
#X connect 11 3 13 0;
#X connect 11 4 14 0;
#X connect 11 5 15 0;
#X connect 11 6 16 0;
#X connect 11 7 17 0;
#X connect 11 8 18 0;
#X connect 11 9 19 0;
#X connect 11 10 20 0;
#X connect 11 11 10 0;
#X connect 12 0 8 1;
#X connect 13 0 8 2;
#X connect 14 0 8 3;
#X connect 15 0 8 4;
#X connect 16 0 8 5;
#X connect 17 0 8 6;
#X connect 18 0 8 7;
#X connect 19 0 8 8;
#X connect 20 0 8 9;
#X restore 76 252 pd fill-sections-randomly;
#X obj 79 230 bng 15 250 50 0 empty empty empty 17 7 0 10 -262144 -1
-1;
#X obj 25 232 loadbang;
#X obj 363 170 array define section-1 10;
#X obj 364 191 array define section-2 10;
#X obj 364 213 array define section-3 10;
#X obj 364 236 array define section-4 10;
#X obj 365 257 array define section-5 10;
#X obj 365 279 array define section-6 10;
#X connect 12 0 14 0;
#X connect 13 0 11 0;
#X connect 13 0 11 1;
#X connect 14 0 13 0;
#X connect 15 0 14 1;
#X connect 16 0 17 0;
#X connect 17 0 15 0;
#X connect 19 0 18 0;
#X connect 20 0 18 0;
#X restore 21 122 pd instruments;
#N canvas 1 108 590 325 control-internals 0;
#X obj 97 71 % 10;
#X obj 148 249 pack;
#X msg 147 276 \; rotate-gamelan-\$1 \$2;
#X obj 148 220 f;
#X obj 151 169 random;
#X obj 152 195 sel 0;
#X obj 273 113 int;
#X obj 153 121 % 10;
#X obj 174 41 int;
#X obj 97 120 int;
#X obj 124 121 + 1;
#X obj 341 115 int;
#X obj 97 96 sel 0;
#X obj 248 18 r section;
#X obj 151 144 t b f f f f;
#X obj 89 35 spigot 1;
#X obj 212 175 sel 0;
#X obj 371 17 r mute;
#X msg 369 39 0;
#X msg 470 90 1;
#X obj 138 14 f 1;
#X obj 74 12 r \$0-tick;
#X obj 172 13 r \$0-ictus;
#X obj 288 83 r \$0-beat;
#X obj 344 84 r \$0-density;
#X obj 419 18 r netmute;
#X obj 503 41 r netunmute;
#X obj 476 64 r unmute;
#X obj 352 221 array get section-1;
#X msg 334 184 symbol section-\$1;
#X obj 348 241 unpack;
#X connect 0 0 12 0;
#X connect 1 0 2 0;
#X connect 3 0 1 0;
#X connect 4 0 5 0;
#X connect 5 0 3 0;
#X connect 6 0 7 1;
#X connect 7 0 14 0;
#X connect 8 0 0 1;
#X connect 9 0 10 0;
#X connect 10 0 7 0;
#X connect 11 0 4 1;
#X connect 12 0 9 0;
#X connect 13 0 29 0;
#X connect 14 0 4 0;
#X connect 14 1 3 1;
#X connect 14 2 28 0;
#X connect 14 3 9 1;
#X connect 14 4 16 0;
#X connect 15 0 0 0;
#X connect 16 0 20 0;
#X connect 17 0 18 0;
#X connect 18 0 20 1;
#X connect 19 0 20 0;
#X connect 20 0 15 1;
#X connect 21 0 15 0;
#X connect 22 0 8 0;
#X connect 23 0 6 0;
#X connect 24 0 11 0;
#X connect 25 0 18 0;
#X connect 26 0 19 0;
#X connect 27 0 19 0;
#X connect 28 0 30 0;
#X connect 29 0 28 2;
#X connect 30 0 1 1;
#X restore 21 148 pd control-internals;
#N canvas 448 260 556 325 setup 0;
#X obj 91 54 declare -path internals;
#X obj 89 76 loadbang;
#X obj 300 1 r player-num;
#X obj 285 135 until;
#X msg 285 111 6;
#X obj 286 161 int;
#X obj 311 164 + 1;
#X obj 341 165 t f f f;
#X obj 368 250 pack;
#X msg 357 227 11;
#X msg 408 226 22;
#X msg 350 279 \; ictus-\$2-gui color 0 \$1 \$1 \; beat-\$2-gui color
0 \$1 \$1 \; density-\$2-gui color 0 \$1 \$1;
#X obj 351 197 sel 0;
#X obj 300 42 t b b f b;
#X msg 324 113 0;
#X obj 303 22 + 1;
#X msg 282 65 \; pd-select-player vis 0 \; pd-controls vis 1;
#X msg 90 99 \; pd dsp 1 \; section 1 \; pd-controls vis 0 \; pd-select-player
vis 1 \; beat-1-gui 10 \; beat-2-gui 10 \; beat-3-gui 10 \; beat-4-gui
10 \; beat-5-gui 10 \; beat-6-gui 10;
#X connect 1 0 17 0;
#X connect 2 0 15 0;
#X connect 3 0 5 0;
#X connect 4 0 3 0;
#X connect 5 0 6 0;
#X connect 6 0 7 0;
#X connect 7 0 5 1;
#X connect 7 1 12 0;
#X connect 7 2 8 1;
#X connect 8 0 11 0;
#X connect 9 0 8 0;
#X connect 10 0 8 0;
#X connect 12 0 9 0;
#X connect 12 1 10 0;
#X connect 13 0 4 0;
#X connect 13 1 16 0;
#X connect 13 2 12 1;
#X connect 13 3 14 0;
#X connect 14 0 5 1;
#X connect 15 0 13 0;
#X restore 21 70 pd setup;
#N canvas 1 148 261 160 metronome 0;
#X obj 42 61 syncjams;
#X obj 42 90 route tick;
#X obj 42 119 s \$0-tick;
#X obj 42 32 declare -path ../SyncJams/pure-data;
#X connect 0 0 1 0;
#X connect 1 0 2 0;
#X restore 21 96 pd metronome;
#N canvas 498 187 732 519 networking 0;
#X obj 146 147 netsend;
#X obj 146 172 tgl 15 0 empty empty empty 17 7 0 10 -262144 -1 -1 0
1;
#X msg 105 73 disconnect;
#X obj 126 216 s connected;
#X msg 208 124 disconnect \, connect \$1 13033;
#X obj 208 78 spigot 1;
#X obj 168 194 == 0;
#X obj 208 101 symbol;
#X obj 208 55 netreceive -u 13034;
#X obj 135 27 r data-out;
#X msg 349 66 localhost;
#X obj 429 139 r player-num;
#X msg 83 116 send \$1 \$2 \$3 \$4 \$5;
#X obj 231 161 route 0;
#X obj 270 191 route;
#X obj 431 164 + 1;
#X msg 172 325 4 0 1 0 0;
#X obj 297 216 unpack f f f f f;
#X obj 320 244 pack f f f f;
#X obj 320 271 route 0;
#X msg 194 350 4 2 5 5 5;
#X msg 359 296 \; ictus-\$1-gui set \$2 \; beat-\$1-gui set \$3 \;
density-\$1-gui set \$4;
#X obj 288 314 sel 0 1;
#X obj 284 341 s netmute;
#X obj 303 364 s netunmute;
#X obj 430 191 t f f;
#X obj 438 454 s \$0-ictus;
#X obj 513 458 s \$0-beat;
#X obj 588 456 s \$0-density;
#X msg 140 294 7 0 5 0 0;
#X msg 138 381 3 2 1 10 1;
#X obj 334 409 - 1;
#X obj 334 437 s section;
#X obj 517 249 route 6;
#X obj 562 284 unpack f f f;
#X connect 0 0 1 0;
#X connect 0 1 13 0;
#X connect 1 0 3 0;
#X connect 1 0 6 0;
#X connect 2 0 0 0;
#X connect 4 0 0 0;
#X connect 5 0 7 0;
#X connect 6 0 5 1;
#X connect 7 0 4 0;
#X connect 8 0 5 0;
#X connect 9 0 12 0;
#X connect 10 0 7 0;
#X connect 11 0 15 0;
#X connect 12 0 0 0;
#X connect 13 1 14 0;
#X connect 14 1 17 0;
#X connect 15 0 25 0;
#X connect 16 0 13 0;
#X connect 17 1 18 0;
#X connect 17 2 18 1;
#X connect 17 3 18 2;
#X connect 17 4 18 3;
#X connect 18 0 19 0;
#X connect 19 0 22 0;
#X connect 19 1 21 0;
#X connect 19 1 33 0;
#X connect 20 0 13 0;
#X connect 22 0 23 0;
#X connect 22 1 24 0;
#X connect 22 2 31 0;
#X connect 25 0 33 1;
#X connect 25 1 14 1;
#X connect 29 0 13 0;
#X connect 30 0 13 0;
#X connect 31 0 32 0;
#X connect 33 0 34 0;
#X connect 34 0 26 0;
#X connect 34 1 27 0;
#X connect 34 2 28 0;
#X restore 21 174 pd networking;
#N canvas 301 241 759 429 select-player 1;
#X obj 315 150 vradio 15 1 0 6 player-num empty empty 0 -8 0 10 -262144
-1 -1 0;
#X text 325 75 WHEELIES;
#X text 295 112 Choose your player number;
#X text 336 149 1;
#X text 336 165 2;
#X text 336 180 3;
#X text 336 195 4;
#X text 336 210 5;
#X text 336 225 6;
#X restore 21 44 pd select-player;
#N canvas 177 457 450 300 send-sliders 0;
#X obj 33 28 send-data 1;
#X obj 183 30 send-data 3;
#X obj 108 29 send-data 2;
#X obj 35 51 send-data 4;
#X obj 110 52 send-data 5;
#X obj 185 53 send-data 6;
#X restore 21 200 pd send-sliders;
#N canvas 1 71 450 300 send-stop-start 0;
#X obj 135 64 r mute;
#X obj 207 63 r unmute;
#X obj 354 39 r player-num;
#X obj 357 73 + 1;
#X obj 198 129 pack f f;
#X msg 162 98 0;
#X msg 218 97 1;
#X msg 198 155 \; data-out \$2 0 \$1 0 0;
#X connect 0 0 5 0;
#X connect 1 0 6 0;
#X connect 2 0 3 0;
#X connect 3 0 4 1;
#X connect 4 0 7 0;
#X connect 5 0 4 0;
#X connect 6 0 4 0;
#X restore 21 226 pd send-stop-start;
#N canvas 522 151 579 397 controls 0;
#X obj 23 243 vsl 15 128 10 1 0 0 ictus-4 ictus-4-gui ictus 0 -9 0
10 -262144 -1 -1 0 1;
#X obj 24 41 vsl 15 128 10 1 0 0 ictus-1 ictus-1-gui ictus 0 -9 0 10
-262144 -128992 -128992 0 1;
#X obj 59 41 vsl 15 128 1 10 0 0 beat-1 beat-1-gui beat 0 -9 0 10 -262144
-128992 -128992 12700 1;
#X obj 96 41 vsl 15 128 10 1 0 0 density-1 density-1-gui density 0
-9 0 10 -262144 -128992 -128992 0 1;
#X obj 487 241 vsl 15 128 0 1 0 0 mastervol empty mastervol 0 -9 0
10 -262144 -1 -1 0 1;
#X obj 509 121 bng 50 250 50 0 mute empty empty 17 7 0 10 -258113 -1
-1;
#X obj 448 121 bng 50 250 50 0 unmute empty empty 17 7 0 10 -4034 -1
-1;
#X obj 173 41 vsl 15 128 10 1 0 0 ictus-2 ictus-2-gui ictus 0 -9 0
10 -262144 -1 -1 0 1;
#X obj 208 41 vsl 15 128 1 10 0 0 beat-2 beat-2-gui beat 0 -9 0 10
-262144 -1 -1 12700 1;
#X obj 245 41 vsl 15 128 10 1 0 0 density-2 density-2-gui density 0
-9 0 10 -262144 -1 -1 0 1;
#X obj 318 41 vsl 15 128 10 1 0 0 ictus-3 ictus-3-gui ictus 0 -9 0
10 -262144 -1 -1 0 1;
#X obj 353 41 vsl 15 128 1 10 0 0 beat-3 beat-3-gui beat 0 -9 0 10
-262144 -1 -1 12700 1;
#X obj 390 41 vsl 15 128 10 1 0 0 density-3 density-3-gui density 0
-9 0 10 -262144 -1 -1 0 1;
#X obj 58 243 vsl 15 128 1 10 0 0 beat-4 beat-4-gui beat 0 -9 0 10
-262144 -1 -1 12700 1;
#X obj 95 243 vsl 15 128 10 1 0 0 density-4 density-4-gui density 0
-9 0 10 -262144 -1 -1 0 1;
#X obj 172 243 vsl 15 128 10 1 0 0 ictus-5 ictus-5-gui ictus 0 -9 0
10 -262144 -1 -1 0 1;
#X obj 207 243 vsl 15 128 1 10 0 0 beat-5 beat-5-gui beat 0 -9 0 10
-262144 -1 -1 12700 1;
#X obj 244 243 vsl 15 128 10 1 0 0 density-5 density-5-gui density
0 -9 0 10 -262144 -1 -1 0 1;
#X obj 317 243 vsl 15 128 10 1 0 0 ictus-6 ictus-6-gui ictus 0 -9 0
10 -262144 -1 -1 0 1;
#X obj 352 243 vsl 15 128 1 10 0 0 beat-6 beat-6-gui beat 0 -9 0 10
-262144 -1 -1 12700 1;
#X obj 389 243 vsl 15 128 10 1 0 0 density-6 density-6-gui density
0 -9 0 10 -262144 -1 -1 0 1;
#X obj 459 31 cnv 15 100 60 empty empty WHEELIES 20 12 0 14 -233017
-66577 0;
#X text 466 73 by Chris Brown;
#X restore 21 18 pd controls;
