#N canvas 0 55 1280 743 10;
#X declare -path internals;
#X obj 1 -1 cnv 15 1280 840 empty color-background empty 20 12 0 14
-233479 -262144 0;
#X obj 8 31 vsl 15 600 0 127 0 0 mod mod-gui mod 0 -9 0 10 -262144
-1 -1 54000 1;
#X obj 8 641 bng 15 250 50 0 load load-gui empty 17 7 0 10 -262144
-1 -1;
#X obj 1243 30 vsl 15 600 0 1 0 0 mastervol mastervol-gui vol 0 -9
0 10 -1 -262144 -1 59900 1;
#N canvas 1 77 450 300 internals 0;
#X obj 57 30 declare -path internals;
#X obj 59 58 nanokontrol;
#X obj 59 86 color-canvas;
#X obj 262 59 r /nanoKontrol/slider/1;
#X obj 262 82 s mod-gui;
#X obj 264 152 r /nanoKontrol/slider/8;
#X obj 264 175 s mastervol-gui;
#X obj 263 105 r /nanoKontrol/r/1;
#X obj 263 128 s load-gui;
#N canvas 567 184 456 414 audio-internals 0;
#X obj 61 48 readsf~;
#X obj 193 11 r load;
#X obj 194 36 openpanel;
#X obj 194 63 symbol;
#X obj 65 86 *~;
#X obj 122 117 r mod;
#X obj 99 89 osc~;
#X msg 121 173 \$1 5000;
#X obj 123 197 line~;
#X obj 67 220 CLIMEpanner~;
#X obj 41 250 *~;
#X obj 67 250 *~;
#X obj 92 249 *~;
#X obj 118 249 *~;
#X obj 37 291 *~;
#X obj 64 292 *~;
#X obj 92 293 *~;
#X obj 119 294 *~;
#X obj 241 228 r mastervol;
#X msg 237 255 \$1 250;
#X obj 233 295 line~;
#X obj 44 327 dac~ 1 2 3 4;
#X msg 192 88 open \$1 \, 1;
#X obj 122 137 expr pow(2 \, int($f1/7-2))*.1375 \; pow(2 \, $f1/15-4)
;
#X connect 0 0 4 0;
#X connect 0 1 3 0;
#X connect 1 0 2 0;
#X connect 2 0 3 0;
#X connect 3 0 22 0;
#X connect 4 0 10 0;
#X connect 4 0 11 0;
#X connect 4 0 12 0;
#X connect 4 0 13 0;
#X connect 5 0 23 0;
#X connect 6 0 4 1;
#X connect 7 0 8 0;
#X connect 8 0 6 0;
#X connect 9 0 10 1;
#X connect 9 1 11 1;
#X connect 9 2 12 1;
#X connect 9 3 13 1;
#X connect 10 0 14 0;
#X connect 11 0 15 0;
#X connect 12 0 16 0;
#X connect 13 0 17 0;
#X connect 14 0 21 0;
#X connect 15 0 21 2;
#X connect 16 0 21 1;
#X connect 17 0 21 3;
#X connect 18 0 19 0;
#X connect 19 0 20 0;
#X connect 20 0 17 1;
#X connect 20 0 16 1;
#X connect 20 0 15 1;
#X connect 20 0 14 1;
#X connect 22 0 0 0;
#X connect 23 0 7 0;
#X connect 23 1 9 3;
#X restore 61 162 pd audio-internals;
#X obj 263 211 loadbang;
#X msg 263 236 \; pd dsp 1;
#X connect 3 0 4 0;
#X connect 5 0 6 0;
#X connect 7 0 8 0;
#X connect 10 0 11 0;
#X restore 1182 675 pd internals;
