#N canvas 0 56 1280 718 10;
#X declare -path internals;
#X obj 1 -1 cnv 15 1280 840 empty color-background empty 20 12 0 14
-233479 -262144 0;
#X obj 8 31 vsl 15 600 0 127 0 0 mod mod-gui mod 0 -9 0 10 -262144
-1 -1 53800 1;
#X obj 71 30 vsl 15 600 0 1 0 0 mastervol mastervol-gui vol 0 -9 0
10 -1 -262144 -1 52600 1;
#N canvas 1 98 450 300 internals 0;
#X obj 57 30 declare -path internals;
#X obj 59 58 nanokontrol;
#X obj 59 86 color-canvas;
#X obj 262 59 r /nanoKontrol/slider/1;
#X obj 262 82 s mod-gui;
#X obj 264 152 r /nanoKontrol/slider/8;
#X obj 264 175 s mastervol-gui;
#X obj 263 105 r /nanoKontrol/r/1;
#X obj 263 128 s load-gui;
#N canvas 555 202 647 526 audio-internals 0;
#X obj 226 73 r mod;
#X msg 121 173 \$1 5000;
#X obj 123 197 line~;
#X obj 67 220 CLIMEpanner~;
#X obj 41 250 *~;
#X obj 67 250 *~;
#X obj 92 249 *~;
#X obj 118 249 *~;
#X obj 37 291 *~;
#X obj 64 292 *~;
#X obj 92 293 *~;
#X obj 119 294 *~;
#X obj 241 228 r mastervol;
#X msg 237 255 \$1 250;
#X obj 233 295 line~;
#X obj 44 327 dac~ 1 2 3 4;
#X obj 122 137 expr pow(2 \, int($f1/7-2))*.1375 \; pow(2 \, $f1/15-4)
;
#X obj 487 263 s_blsquare;
#X msg 495 210 55;
#X obj 497 157 loadbang;
#X obj 639 99 osc~ 0.5;
#X obj 637 192 +~ 0.5;
#X obj 718 246 line~;
#X obj 662 69 line~;
#X obj 631 152 *~;
#X obj 510 289 vcf~ 1;
#X obj 566 150 mtof;
#X obj 568 205 line~;
#X msg 665 40 \$1 20000;
#X msg 721 218 \$1 30000;
#X msg 568 177 \$1 16000;
#X obj 726 193 * 1720;
#X obj 561 98 * 88;
#X obj 561 122 + 21;
#X obj 562 42 r mod;
#X obj 665 -10 r mod;
#X obj 722 142 r mod;
#X obj 558 70 / 127;
#X obj 667 15 / 127;
#X obj 720 168 / 127;
#X connect 0 0 16 0;
#X connect 1 0 2 0;
#X connect 3 0 4 1;
#X connect 3 1 5 1;
#X connect 3 2 6 1;
#X connect 3 3 7 1;
#X connect 4 0 8 0;
#X connect 5 0 9 0;
#X connect 6 0 10 0;
#X connect 7 0 11 0;
#X connect 8 0 15 0;
#X connect 9 0 15 2;
#X connect 10 0 15 1;
#X connect 11 0 15 3;
#X connect 12 0 13 0;
#X connect 13 0 14 0;
#X connect 14 0 11 1;
#X connect 14 0 10 1;
#X connect 14 0 9 1;
#X connect 14 0 8 1;
#X connect 16 0 1 0;
#X connect 16 1 3 3;
#X connect 17 0 25 0;
#X connect 18 0 17 0;
#X connect 19 0 18 0;
#X connect 20 0 24 0;
#X connect 21 0 17 1;
#X connect 22 0 20 0;
#X connect 23 0 24 1;
#X connect 24 0 21 0;
#X connect 25 1 7 0;
#X connect 25 1 6 0;
#X connect 25 1 5 0;
#X connect 25 1 4 0;
#X connect 26 0 30 0;
#X connect 27 0 25 1;
#X connect 28 0 23 0;
#X connect 29 0 22 0;
#X connect 30 0 27 0;
#X connect 31 0 29 0;
#X connect 32 0 33 0;
#X connect 33 0 26 0;
#X connect 34 0 37 0;
#X connect 35 0 38 0;
#X connect 36 0 39 0;
#X connect 37 0 32 0;
#X connect 38 0 28 0;
#X connect 39 0 31 0;
#X restore 61 162 pd audio-internals;
#X obj 263 211 loadbang;
#X msg 263 236 \; pd dsp 1 \; mod-gui 0;
#X connect 3 0 4 0;
#X connect 5 0 6 0;
#X connect 7 0 8 0;
#X connect 10 0 11 0;
#X restore 10 675 pd internals;
