#N canvas 1 56 450 300 10;
#X obj 336 26 table \$0-vals \$1;
#X obj 71 143 until;
#X obj 77 39 f \$1;
#X obj 77 16 loadbang;
#X obj 71 118 spigot;
#X obj 103 88 > 0;
#X obj 98 185 int;
#X obj 165 175 + 1;
#X msg 129 144 0;
#X obj 77 64 t f f b;
#X obj 206 226 random \$2;
#X obj 187 253 tabwrite \$0-vals;
#X obj 165 197 t f b f;
#X obj 272 136 tabread \$0-vals;
#X obj 263 62 int;
#X obj 289 63 + 1;
#X obj 263 15 inlet;
#X msg 262 38 bang;
#X obj 315 62 % \$1;
#X obj 306 96 t f f b b;
#X obj 270 165 outlet;
#X obj 340 184 random \$2;
#X obj 404 183 random \$1;
#X obj 346 209 tabwrite \$0-vals;
#X connect 1 0 6 0;
#X connect 2 0 9 0;
#X connect 3 0 2 0;
#X connect 4 0 1 0;
#X connect 5 0 4 1;
#X connect 6 0 7 0;
#X connect 7 0 12 0;
#X connect 8 0 6 1;
#X connect 9 0 4 0;
#X connect 9 1 5 0;
#X connect 9 2 8 0;
#X connect 10 0 11 0;
#X connect 12 0 6 1;
#X connect 12 1 10 0;
#X connect 12 2 11 1;
#X connect 13 0 20 0;
#X connect 14 0 15 0;
#X connect 15 0 18 0;
#X connect 16 0 17 0;
#X connect 17 0 14 0;
#X connect 18 0 19 0;
#X connect 19 0 14 1;
#X connect 19 1 13 0;
#X connect 19 2 21 0;
#X connect 19 3 22 0;
#X connect 21 0 23 0;
#X connect 22 0 23 1;
