#N canvas 598 247 627 502 10;
#X obj 94 161 inlet;
#X obj 94 185 * 1.5708;
#X obj 251 161 inlet;
#X obj 251 184 * 1.5708;
#X obj 128 117 expr .5+.5*cos($f1) \; .5+.5*sin($f1);
#X obj 128 92 * 1.5708;
#X obj 23 97 vradio 15 1 0 4 empty empty empty 0 -8 0 10 -262144 -1
-1 1;
#X obj 463 168 metro 50;
#X obj 94 210 expr sin($f1) \; cos($f1);
#X text 42 101 Left \; Front \; Right \; Back;
#X obj 14 71 inlet;
#X text 95 341 Left;
#X text 174 342 Front;
#X text 238 342 Right;
#X text 294 342 Back;
#X obj 409 72 inlet;
#X obj 432 117 t b f;
#X msg 432 139 1;
#X obj 392 116 sel 0;
#X msg 392 139 0;
#X obj 394 232 snapshot~;
#X text 479 196 INLETS \; 1: circular pos 0-4 \; 2: X pos 0-1 \; 3:
Y pos 0-1 \; 4: rotor (speed);
#X text 477 294 OUTLETS \; 1: Left out \; 2: Front out \; 3: Right
out \; 4: Back out;
#X obj 94 320 outlet~;
#X obj 394 172 phasor~ \$1;
#X obj 470 61 loadbang;
#X obj 473 86 f \$1;
#X obj 395 198 *~ 4;
#X obj 94 296 line~;
#X obj 173 320 outlet~;
#X obj 173 296 line~;
#X obj 234 322 outlet~;
#X obj 234 298 line~;
#X obj 291 322 outlet~;
#X obj 291 298 line~;
#X obj 251 209 expr sin($f1) \; cos($f1);
#X msg 94 272 \$1 50;
#X msg 173 272 \$1 50;
#X msg 234 274 \$1 50;
#X msg 291 274 \$1 50;
#X obj 125 54 t f b;
#X connect 0 0 1 0;
#X connect 1 0 8 0;
#X connect 2 0 3 0;
#X connect 3 0 35 0;
#X connect 4 0 1 0;
#X connect 4 1 3 0;
#X connect 5 0 4 0;
#X connect 6 0 5 0;
#X connect 7 0 20 0;
#X connect 8 0 36 0;
#X connect 8 1 38 0;
#X connect 10 0 40 0;
#X connect 15 0 18 0;
#X connect 16 0 17 0;
#X connect 16 1 24 0;
#X connect 17 0 7 0;
#X connect 18 0 19 0;
#X connect 18 1 16 0;
#X connect 19 0 7 0;
#X connect 20 0 5 0;
#X connect 24 0 27 0;
#X connect 25 0 26 0;
#X connect 26 0 18 0;
#X connect 27 0 20 0;
#X connect 28 0 23 0;
#X connect 30 0 29 0;
#X connect 32 0 31 0;
#X connect 34 0 33 0;
#X connect 35 0 37 0;
#X connect 35 1 39 0;
#X connect 36 0 28 0;
#X connect 37 0 30 0;
#X connect 38 0 32 0;
#X connect 39 0 34 0;
#X connect 40 0 5 0;
#X connect 40 1 19 0;
