#N canvas 717 368 450 300 10;
#X obj 240 126 cnv 15 100 60 empty color-background empty 20 12 0 14
-64 -262144 0;
#X msg 29 172 \; color-background color \$1 0;
#X obj 137 107 expr 255-$f1;
#X obj 371 52 vsl 15 128 0 1 0 0 redness empty redness 0 -9 0 10 -262144
-1 -1 0 1;
#X obj 98 83 t b f f;
#X obj 98 60 int;
#N canvas 448 307 606 448 RGB 0;
#X obj 97 56 inlet;
#X obj 262 53 inlet;
#X obj 339 55 inlet;
#X obj 405 56 inlet;
#X obj 265 313 spigot;
#X obj 312 313 spigot;
#X obj 249 385 outlet;
#X text 93 33 select;
#X text 267 28 red;
#X text 337 30 green;
#X text 409 30 blue;
#X obj 405 102 t b f;
#X obj 339 160 +;
#X obj 339 185 t b f;
#X obj 339 216 +;
#X obj 296 385 outlet;
#X obj 296 361 f;
#X obj 249 361 f;
#X obj 262 79 * -65536;
#X obj 339 80 * -256;
#X obj 405 80 * -1;
#X obj 339 247 - 1;
#X obj 235 168 t b b b;
#X obj 97 270 bang;
#X msg 77 295 0;
#X msg 104 295 1;
#X obj 146 268 bang;
#X msg 132 295 0;
#X msg 160 295 1;
#X obj 28 180 loadbang;
#X obj 97 135 route back label bang;
#X connect 0 0 22 0;
#X connect 0 0 30 0;
#X connect 1 0 18 0;
#X connect 2 0 19 0;
#X connect 3 0 20 0;
#X connect 4 0 17 1;
#X connect 5 0 16 1;
#X connect 11 0 12 0;
#X connect 11 1 12 1;
#X connect 12 0 13 0;
#X connect 13 0 14 0;
#X connect 13 1 14 1;
#X connect 14 0 21 0;
#X connect 16 0 15 0;
#X connect 17 0 6 0;
#X connect 18 0 14 0;
#X connect 19 0 12 0;
#X connect 20 0 11 0;
#X connect 21 0 5 0;
#X connect 21 0 4 0;
#X connect 22 0 17 0;
#X connect 22 1 16 0;
#X connect 22 2 21 0;
#X connect 23 0 24 0;
#X connect 23 0 25 0;
#X connect 24 0 5 1;
#X connect 25 0 4 1;
#X connect 26 0 27 0;
#X connect 26 0 28 0;
#X connect 27 0 4 1;
#X connect 28 0 5 1;
#X connect 29 0 25 0;
#X connect 30 0 23 0;
#X connect 30 1 26 0;
#X connect 30 2 22 0;
#X restore 98 133 pd RGB;
#X obj 98 -10 r mod;
#X obj 98 13 * 2;
#X obj 98 35 clip 0 255;
#X connect 2 0 6 3;
#X connect 4 0 6 0;
#X connect 4 1 6 1;
#X connect 4 2 2 0;
#X connect 5 0 4 0;
#X connect 6 0 1 0;
#X connect 7 0 8 0;
#X connect 8 0 9 0;
#X connect 9 0 5 0;
