#N canvas 225 137 1016 367 10;
#X declare -path internals;
#X declare -path ../SyncJams/pure-data;
#X obj 1 0 cnv 15 1000 350 empty empty empty 20 12 0 14 -1 -262144
0;
#N canvas 298 426 867 314 internals 0;
#X obj 611 91 loadbang;
#X obj 407 112 nanokontrol;
#X obj 127 201 *~;
#X obj 154 200 *~;
#X obj 127 139 catch~ all-loops;
#X obj 127 164 clip~ -1 1;
#X obj 406 133 declare -path internals;
#X obj 395 177 declare -path ../SyncJams/pure-data;
#N canvas 1 116 189 147 trackbar 0;
#X obj 56 28 inlet;
#X msg 56 103 \; radio-gui \$1;
#X connect 0 0 1 0;
#X restore 492 102 pd trackbar;
#X obj 130 239 dac~;
#X msg 611 113 \; pd dsp 1 \; set-mastervol 0.5;
#X obj 236 163 line~;
#X msg 236 141 \$1 10;
#X obj 236 119 r cj-mastervol;
#X obj 101 101 cnv 15 78 15 empty empty INTERNALS 10 8 0 10 -33289
-260097 0;
#X obj 407 68 abl_link~ 1 0 32 140;
#X obj 406 30 s climejam-pulse;
#X obj 563 61 s climejam-tempo;
#X obj 337 37 loadbang;
#X msg 338 59 connect 1;
#X connect 0 0 10 0;
#X connect 2 0 9 0;
#X connect 3 0 9 1;
#X connect 4 0 5 0;
#X connect 5 0 2 0;
#X connect 5 0 3 0;
#X connect 11 0 3 1;
#X connect 11 0 2 1;
#X connect 12 0 11 0;
#X connect 13 0 12 0;
#X connect 15 0 8 0;
#X connect 15 0 16 0;
#X connect 15 3 17 0;
#X connect 18 0 19 0;
#X connect 19 0 15 0;
#X coords 0 -1 1 1 80 17 1 100 100;
#X restore 6 326 pd internals;
#X obj 921 30 vsl 40 300 0 1 0 0 cj-mastervol set-mastervol VOL 0 -9
0 10 -260097 -1 -262144 14950 1;
#X obj 27 22 climeloop~ 1;
#N canvas 1 61 978 322 beat-counter 0;
#X obj 101 101 hradio 25 1 0 32 foo radio-gui BEAT 0 -8 0 10 -262144
-1 -262144 2;
#X obj 101 126 cnv 5 199 5 empty empty empty 20 12 0 14 -260097 -66577
0;
#X obj 301 126 cnv 5 200 5 empty empty empty 20 12 0 14 -4160 -66577
0;
#X obj 502 126 cnv 5 200 5 empty empty empty 20 12 0 14 -260097 -66577
0;
#X obj 701 126 cnv 5 200 5 empty empty empty 20 12 0 14 -4160 -66577
0;
#X coords 0 -1 1 1 802 32 2 100 100;
#X restore 49 278 pd beat-counter;
#X obj 27 139 climeloop~ 5;
#X obj 242 139 climeloop~ 6;
#X obj 674 22 climeloop~ 4;
#X obj 242 22 climeloop~ 2;
#X obj 458 22 climeloop~ 3;
#X obj 458 139 climeloop~ 7;
#X obj 674 139 climeloop~ 8;
