#N canvas 371 261 895 342 10;
#X declare -lib iemlib2;
#X declare -lib iemlib2;
#X declare -lib iemlib2;
#X declare -lib iemlib2;
#X declare -lib iemlib2;
#X declare -lib iemlib2;
#X declare -lib iemlib2;
#X declare -lib iemlib2;
#X declare -path SyncJams/pure-data;
#X declare -path internals;
#X declare -path ../SyncJams/pure-data;
#X obj 27 22 climeloop~ 1;
#X obj 97 255 hradio 20 1 0 8 empty radio-gui-0 empty 0 -8 0 10 -262130
-1 -1 7;
#X obj 265 255 hradio 20 1 0 8 empty radio-gui-1 empty 0 -8 0 10 -262130
-1 -1 7;
#X obj 457 255 hradio 20 1 0 8 empty radio-gui-2 empty 0 -8 0 10 -262130
-1 -1 7;
#X obj 625 255 hradio 20 1 0 8 empty radio-gui-3 empty 0 -8 0 10 -262130
-1 -1 4;
#X text 29 258 PROGRESS;
#X obj 855 26 vsl 15 200 0 1 0 0 cj-mastervol set-mastervol VOL 0 -9
0 10 -204786 -1 -1 11700 1;
#X obj 233 129 climeloop~ 6;
#X obj 645 22 climeloop~ 4;
#X obj 27 129 climeloop~ 5;
#X obj 233 22 climeloop~ 2;
#X obj 439 22 climeloop~ 3;
#X obj 439 129 climeloop~ 7;
#X obj 645 129 climeloop~ 8;
#N canvas 0 22 754 220 internals 0;
#X obj 407 90 declare -path SyncJams/pure-data;
#X obj 611 91 loadbang;
#X obj 407 23 r get-tempo;
#X obj 407 112 nanokontrol;
#X obj 38 129 *~;
#X obj 65 128 *~;
#X obj 38 67 catch~ all-loops;
#X msg 407 45 get-state /BPM;
#X obj 38 92 clip~ -1 1;
#X msg 255 48 set-state /BPM 140;
#X msg 255 69 set-state /BPM 104;
#X obj 406 133 declare -path internals;
#X obj 406 157 declare -path ../SyncJams/pure-data;
#N canvas 1 56 450 300 trackbar 0;
#X obj 158 34 inlet;
#X obj 157 56 route tick;
#X obj 156 114 % 8;
#X obj 183 163 int;
#X obj 156 80 t f f;
#X obj 183 114 % 32;
#X obj 183 138 / 8;
#X obj 156 188 pack;
#X msg 156 212 \; radio-gui-\$2 \$1;
#X connect 0 0 1 0;
#X connect 1 0 4 0;
#X connect 2 0 7 0;
#X connect 3 0 7 1;
#X connect 4 0 2 0;
#X connect 4 1 5 0;
#X connect 5 0 6 0;
#X connect 6 0 3 0;
#X connect 7 0 8 0;
#X restore 329 89 pd trackbar;
#X obj 407 68 syncjams CLIMEjam \, bpm 140 \, namespace CLIME;
#X obj 41 167 dac~;
#X msg 611 113 \; pd dsp 1 \; set-mastervol 0.5;
#X obj 147 91 line~;
#X msg 147 69 \$1 10;
#X obj 147 47 r cj-mastervol;
#X floatatom 207 81 5 0 0 0 - - -, f 5;
#X connect 1 0 16 0;
#X connect 2 0 7 0;
#X connect 4 0 15 0;
#X connect 5 0 15 1;
#X connect 6 0 8 0;
#X connect 7 0 14 0;
#X connect 8 0 4 0;
#X connect 8 0 5 0;
#X connect 9 0 14 0;
#X connect 10 0 14 0;
#X connect 14 0 13 0;
#X connect 17 0 5 1;
#X connect 17 0 4 1;
#X connect 18 0 17 0;
#X connect 19 0 18 0;
#X connect 19 0 20 0;
#X restore 32 300 pd internals;
