#N canvas 617 283 727 224 10;
#X floatatom 119 144 5 0 0 0 - - -, f 5;
#X obj 472 44 hsl 128 15 0 127 0 0 /myslider/1 /myslider/1/r /myslider/1
-2 -8 0 10 -262144 -1 -1 0 0;
#X obj 472 84 hsl 128 15 0 127 0 0 /myslider/2 /myslider/2/r /myslider/2
-2 -8 0 10 -262144 -1 -1 0 1;
#X obj 472 122 tgl 15 0 /mytoggle/1 /mytoggle/1/r /mytoggle/1 17 7
0 10 -262144 -1 -1 0 1;
#X obj 244 153 syncjams-gui-connector \$0/climer /myslider/1 /myslider/1/r
;
#X obj 244 175 syncjams-gui-connector \$0/climer /myslider/2 /myslider/2/r
;
#X obj 244 197 syncjams-gui-connector \$0/climer /mytoggle/1 /mytoggle/1/r
;
#X obj 171 142 print;
#X msg 119 31 set-state /BPM 120;
#X obj 119 97 route tick message node-id;
#X obj 119 64 syncjams \$0/climer \, bpm 60 \, namespace CLIME;
#X connect 8 0 10 0;
#X connect 9 0 0 0;
#X connect 9 1 7 0;
#X connect 10 0 9 0;
