#N canvas 308 257 772 484 10;
#X declare -lib iemlib2;
#X obj 528 277 soundfiler;
#X obj 603 204 f \$0;
#X obj 321 312 tabread4~ \$0-loop;
#X obj 528 229 pack symbol f;
#X obj 323 264 phasor~;
#X obj 305 179 % 16;
#X obj 305 203 sel 0;
#X msg 307 231 0;
#X obj 323 286 *~;
#X obj 289 61 r CLIMEjam/r;
#X obj 323 341 *~;
#X obj 434 364 line~;
#X obj 289 83 route tick state;
#X obj 304 113 unpack f symbol f;
#X obj 358 239 expr $f1/(60*$f2);
#X obj 461 89 s get-tempo;
#X floatatom 358 210 5 0 0 0 - - -, f 5;
#X text 569 45 filename;
#X msg 528 253 read -resize \$1 \$2-loop;
#X obj 528 202 openpanel;
#X obj 461 37 loadbang;
#X msg 703 132 1;
#X obj 228 250 f;
#X msg 441 320 \$1 25;
#X msg 488 330 0 25;
#X obj 434 173 t f b f b;
#X obj 194 225 t b b b;
#X text 263 166 32;
#X obj 432 128 expr pow(2 \, $f1+2);
#X msg 266 20 2;
#X obj 49 387 declare -lib iemlib2;
#X obj 181 355 splitfilename;
#X obj 101 182 cnv 15 178 17 empty \$0-canvas READY 3 9 0 10 -233017
-66577 0;
#X obj 56 243 f \$0;
#X obj 86 207 t b a;
#X msg 48 296 \; \$1-canvas label \$2;
#X obj 55 268 pack f symbol;
#X obj 248 101 tgl 15 0 empty empty empty 17 7 0 10 -24198 -262144
-262144 1 1;
#X obj 264 101 bng 15 250 50 0 empty empty empty 17 7 0 10 -262144
-1 -1;
#X obj 249 127 vradio 13 1 0 4 empty empty empty 0 -8 0 10 -262144
-1 -1 2;
#X text 263 125 4;
#X text 263 139 8;
#X text 263 152 16;
#N canvas 0 50 450 250 (subpatch) 0;
#X array \$0-loop 525850 float 2;
#X coords 0 1 525850 -1 130 40 1 0 0;
#X restore 105 135 graph;
#X obj 598 349 r /nanoKontrol/r/\$1;
#X obj 596 373 sel 127;
#X obj 461 62 t b b b b;
#X obj 60 68 symbol;
#X msg 61 43 READY;
#X obj 558 398 r /nanoKontrol/knob/\$1;
#X obj 556 420 / 32;
#X obj 558 442 int;
#X obj 381 455 sel 127;
#X obj 383 431 r /nanoKontrol/m/\$1;
#X obj 322 373 *~;
#X obj 284 103 vsl 15 93 0 1 0 0 empty empty empty 0 -9 0 10 -204800
-1 -1 0 1;
#X obj 278 373 line~;
#X msg 278 350 \$1 50;
#X obj 174 414 r /nanoKontrol/slider/\$1;
#X obj 172 436 / 127;
#X obj 556 462 change;
#X obj 321 396 throw~ all-loops;
#X msg 367 14 color 16 0 0;
#X msg 458 13 color 13 22 0;
#X obj 265 247 sel 0 1;
#X obj 565 22 loadbang;
#X obj 564 61 t b a b b b;
#X msg 638 96 1;
#X obj 698 106 loadbang;
#X connect 0 0 8 1;
#X connect 1 0 3 1;
#X connect 2 0 10 0;
#X connect 3 0 18 0;
#X connect 4 0 8 0;
#X connect 5 0 6 0;
#X connect 6 0 26 0;
#X connect 7 0 4 1;
#X connect 8 0 2 0;
#X connect 9 0 12 0;
#X connect 9 0 12 0;
#X connect 10 0 54 0;
#X connect 11 0 10 1;
#X connect 12 0 5 0;
#X connect 12 1 13 0;
#X connect 13 2 16 0;
#X connect 14 0 4 0;
#X connect 16 0 14 0;
#X connect 18 0 0 0;
#X connect 19 0 3 0;
#X connect 19 0 31 0;
#X connect 20 0 46 0;
#X connect 21 0 55 0;
#X connect 22 0 23 0;
#X connect 23 0 11 0;
#X connect 24 0 11 0;
#X connect 25 0 5 1;
#X connect 25 1 16 0;
#X connect 25 2 14 1;
#X connect 25 3 24 0;
#X connect 26 1 7 0;
#X connect 26 2 22 0;
#X connect 28 0 25 0;
#X connect 29 0 39 0;
#X connect 31 1 34 0;
#X connect 33 0 36 0;
#X connect 34 0 33 0;
#X connect 34 1 36 1;
#X connect 36 0 35 0;
#X connect 37 0 22 1;
#X connect 37 0 64 0;
#X connect 38 0 66 0;
#X connect 39 0 28 0;
#X connect 44 0 45 0;
#X connect 45 0 38 0;
#X connect 46 0 15 0;
#X connect 46 2 29 0;
#X connect 46 3 48 0;
#X connect 47 0 34 0;
#X connect 48 0 47 0;
#X connect 49 0 50 0;
#X connect 50 0 51 0;
#X connect 51 0 60 0;
#X connect 52 0 37 0;
#X connect 53 0 52 0;
#X connect 54 0 61 0;
#X connect 55 0 57 0;
#X connect 56 0 54 1;
#X connect 57 0 56 0;
#X connect 58 0 59 0;
#X connect 59 0 55 0;
#X connect 60 0 39 0;
#X connect 62 0 37 0;
#X connect 63 0 37 0;
#X connect 64 0 63 0;
#X connect 64 1 62 0;
#X connect 65 0 63 0;
#X connect 66 1 19 0;
#X connect 66 2 1 0;
#X connect 66 3 24 0;
#X connect 66 4 67 0;
#X connect 67 0 37 0;
#X connect 68 0 21 0;
#X coords 0 -1 1 1 200 100 1 100 100;
