#N canvas 161 238 1116 239 10;
#X declare -path SyncJams/pure-data;
#X declare -lib iemlib2;
#X declare -lib iemlib2;
#X declare -lib iemlib2;
#X declare -lib iemlib2;
#X declare -lib iemlib2;
#X declare -lib iemlib2;
#X declare -lib iemlib2;
#X declare -lib iemlib2;
#X obj 513 403 declare -path SyncJams/pure-data;
#X obj 513 381 syncjams CLIMEjam \, bpm 104 \, namespace CLIME;
#X msg 717 426 \; pd dsp 1;
#X obj 717 404 loadbang;
#X obj 513 336 r get-tempo;
#X obj 513 425 nanokontrol;
#X obj 855 21 grid grid1 200 0 100 200 0 100 0 0.5 0.5 10 10 1024 137
;
#X obj 837 387 CLIMEpanner~;
#X obj 814 461 dac~ 1 2 3 4;
#X obj 833 423 *~;
#X obj 860 422 *~;
#X obj 887 422 *~;
#X obj 914 421 *~;
#X obj 855 306 expr 1-($f1/100);
#X obj 885 335 expr 1-($f1/100);
#X obj 233 129 climeloop~ 6;
#X obj 741 504 catch~ all-loops;
#X msg 513 358 get-state /BPM;
#X obj 755 531 clip~ -1 1;
#X obj 645 22 climeloop~ 4;
#X obj 27 129 climeloop~ 5;
#X obj 233 22 climeloop~ 2;
#X obj 439 22 climeloop~ 3;
#X obj 439 129 climeloop~ 7;
#X obj 645 129 climeloop~ 8;
#X obj 27 22 climeloop~ 1;
#X msg 361 361 set-state /BPM 140;
#X msg 361 382 set-state /BPM 104;
#X connect 3 0 2 0;
#X connect 4 0 17 0;
#X connect 6 0 13 0;
#X connect 6 1 14 0;
#X connect 7 0 9 1;
#X connect 7 1 10 1;
#X connect 7 2 11 1;
#X connect 7 3 12 1;
#X connect 9 0 8 0;
#X connect 10 0 8 2;
#X connect 11 0 8 1;
#X connect 12 0 8 3;
#X connect 13 0 7 1;
#X connect 14 0 7 2;
#X connect 16 0 18 0;
#X connect 17 0 1 0;
#X connect 18 0 9 0;
#X connect 18 0 10 0;
#X connect 18 0 11 0;
#X connect 18 0 12 0;
#X connect 26 0 1 0;
#X connect 27 0 1 0;
