#N canvas 580 175 627 497 10;
#X declare -path .;
#X obj 10 10 table gamelan-0;
#X obj 10 30 table gamelan-1;
#X obj 10 50 table gamelan-2;
#X obj 10 70 table gamelan-3;
#X obj 10 90 table gamelan-4;
#X obj 10 110 table gamelan-5;
#X obj 10 130 table gamelan-6;
#X obj 10 150 table gamelan-7;
#X obj 10 170 table gamelan-8;
#X obj 10 190 table gamelan-9;
#X obj 110 10 table gamelan-10;
#X obj 110 30 table gamelan-11;
#X obj 110 50 table gamelan-12;
#X obj 110 70 table gamelan-13;
#X obj 110 90 table gamelan-14;
#X obj 110 110 table gamelan-15;
#X obj 110 130 table gamelan-16;
#X obj 110 150 table gamelan-17;
#X obj 110 170 table gamelan-18;
#X obj 110 190 table gamelan-19;
#X obj 210 10 table gamelan-20;
#X obj 210 30 table gamelan-21;
#X obj 210 50 table gamelan-22;
#X obj 210 70 table gamelan-23;
#X obj 210 90 table gamelan-24;
#X obj 210 110 table gamelan-25;
#X obj 210 130 table gamelan-26;
#X obj 210 150 table gamelan-27;
#X obj 210 170 table gamelan-28;
#X obj 210 190 table gamelan-29;
#X obj 310 10 table gamelan-30;
#X obj 310 30 table gamelan-31;
#X obj 310 50 table gamelan-32;
#X obj 310 70 table gamelan-33;
#X obj 310 90 table gamelan-34;
#X obj 310 110 table gamelan-35;
#X obj 310 130 table gamelan-36;
#X obj 310 150 table gamelan-37;
#X obj 310 170 table gamelan-38;
#X obj 310 190 table gamelan-39;
#X obj 410 10 table gamelan-40;
#X obj 410 30 table gamelan-41;
#X obj 410 50 table gamelan-42;
#X obj 410 70 table gamelan-43;
#X obj 410 90 table gamelan-44;
#X obj 410 110 table gamelan-45;
#X obj 410 130 table gamelan-46;
#X obj 410 150 table gamelan-47;
#X obj 410 170 table gamelan-48;
#X obj 410 190 table gamelan-49;
#X obj 510 10 table gamelan-50;
#X obj 510 30 table gamelan-51;
#X obj 510 50 table gamelan-52;
#X obj 510 70 table gamelan-53;
#X obj 510 90 table gamelan-54;
#X obj 510 110 table gamelan-55;
#X obj 510 130 table gamelan-56;
#X obj 510 150 table gamelan-57;
#X obj 510 170 table gamelan-58;
#X obj 510 190 table gamelan-59;
#X obj 610 10 table gamelan-60;
#X obj 610 30 table gamelan-61;
#X obj 610 50 table gamelan-62;
#X obj 610 70 table gamelan-63;
#X obj 610 90 table gamelan-64;
#X obj 610 110 table gamelan-65;
#X obj 610 130 table gamelan-66;
#X obj 610 150 table gamelan-67;
#X obj 610 170 table gamelan-68;
#X obj 610 190 table gamelan-69;
#X obj 710 10 table gamelan-70;
#X obj 710 30 table gamelan-71;
#X obj 710 50 table gamelan-72;
#X obj 710 70 table gamelan-73;
#X obj 710 90 table gamelan-74;
#X obj 710 110 table gamelan-75;
#X obj 710 130 table gamelan-76;
#X obj 710 150 table gamelan-77;
#X obj 710 170 table gamelan-78;
#X obj 710 190 table gamelan-79;
#X obj 810 10 table gamelan-80;
#X obj 810 30 table gamelan-81;
#X obj 810 50 table gamelan-82;
#X obj 810 70 table gamelan-83;
#X obj 810 90 table gamelan-84;
#X obj 810 110 table gamelan-85;
#X obj 810 130 table gamelan-86;
#X obj 810 150 table gamelan-87;
#X obj 810 170 table gamelan-88;
#X obj 810 190 table gamelan-89;
#X obj 910 10 table gamelan-90;
#X obj 910 30 table gamelan-91;
#X obj 910 50 table gamelan-92;
#X obj 910 70 table gamelan-93;
#X obj 910 90 table gamelan-94;
#X obj 910 110 table gamelan-95;
#X obj 910 130 table gamelan-96;
#X obj 910 150 table gamelan-97;
#X obj 910 170 table gamelan-98;
#X obj 910 190 table gamelan-99;
#X obj 1010 10 table gamelan-100;
#X obj 1010 30 table gamelan-101;
#X obj 1010 50 table gamelan-102;
#X obj 1010 70 table gamelan-103;
#X obj 1010 90 table gamelan-104;
#X obj 1010 110 table gamelan-105;
#X obj 1010 130 table gamelan-106;
#X obj 1010 150 table gamelan-107;
#X obj 1010 170 table gamelan-108;
#X obj 1010 190 table gamelan-109;
#X obj 1110 10 table gamelan-110;
#X obj 1110 30 table gamelan-111;
#X obj 1110 50 table gamelan-112;
#X obj 1110 70 table gamelan-113;
#X obj 1110 90 table gamelan-114;
#X obj 1110 110 table gamelan-115;
#X obj 1110 130 table gamelan-116;
#X obj 1110 150 table gamelan-117;
#X obj 1110 170 table gamelan-118;
#X obj 1110 190 table gamelan-119;
#X obj 1210 10 table gamelan-120;
#X obj 1210 30 table gamelan-121;
#X obj 1210 50 table gamelan-122;
#X obj 1210 70 table gamelan-123;
#X obj 1210 90 table gamelan-124;
#X obj 1210 110 table gamelan-125;
#X obj 1210 130 table gamelan-126;
#X obj 1210 150 table gamelan-127;
#X obj 1210 170 table gamelan-128;
#X obj 1210 170 table gamelan-129;
#X obj 76 379 int;
#X msg 53 315 130;
#X obj 53 335 until;
#X obj 97 378 + 1;
#X obj 135 379 t f f;
#X obj 160 429 soundfiler;
#X obj 85 289 t b b;
#X obj 443 407 declare -path .;
#X msg 160 409 read -resize gamelan-wav/\$1.wav gamelan-\$1;
#X msg 97 358 -1;
#X obj 85 268 loadbang;
#X connect 130 0 133 0;
#X connect 131 0 132 0;
#X connect 132 0 130 0;
#X connect 133 0 134 0;
#X connect 134 0 130 1;
#X connect 134 1 138 0;
#X connect 136 0 131 0;
#X connect 136 1 139 0;
#X connect 138 0 135 0;
#X connect 139 0 130 1;
#X connect 140 0 136 0;
