#N canvas 376 223 450 300 10;
#X msg 165 116 set gamelan-\$1;
#X obj 134 185 tabplay~;
#X obj 138 68 t b f;
#X obj 133 215 throw~ gamelan-out;
#X obj 138 37 r rotate-gamelan-\$1;
#X connect 0 0 1 0;
#X connect 1 0 3 0;
#X connect 2 0 1 0;
#X connect 2 1 0 0;
#X connect 4 0 2 0;
