#N canvas 535 167 450 300 10;
#X obj 33 28 r ictus-\$1;
#X obj 120 28 r beat-\$1;
#X obj 203 29 r density-\$1;
#X obj 324 14 r player-num;
#X obj 336 93 != \$1;
#X obj 37 85 spigot 0;
#X obj 122 84 spigot 0;
#X obj 205 83 spigot 0;
#X obj 208 108 t b f;
#X obj 123 110 t b f;
#X obj 38 56 int;
#X obj 131 60 int;
#X obj 216 58 int;
#X obj 324 45 + 1;
#X obj 169 214 s data-out;
#X obj 170 161 pack f f f \$1 f;
#X msg 171 184 \$5 \$4 \$1 \$2 \$3;
#X obj 340 69 t f f;
#X obj 306 119 t f f f;
#X connect 0 0 10 0;
#X connect 1 0 11 0;
#X connect 2 0 12 0;
#X connect 3 0 13 0;
#X connect 4 0 18 0;
#X connect 5 0 15 0;
#X connect 6 0 9 0;
#X connect 7 0 8 0;
#X connect 8 0 15 0;
#X connect 8 1 15 2;
#X connect 9 0 15 0;
#X connect 9 1 15 1;
#X connect 10 0 5 0;
#X connect 11 0 6 0;
#X connect 12 0 7 0;
#X connect 13 0 17 0;
#X connect 15 0 16 0;
#X connect 16 0 14 0;
#X connect 17 0 4 0;
#X connect 17 1 15 4;
#X connect 18 0 7 1;
#X connect 18 1 6 1;
#X connect 18 2 5 1;
