#N canvas 338 272 832 482 10;
#X declare -path .;
#X declare -path internals;
#X declare -path SyncJams/pure-data;
#X obj 26 90 vsl 15 128 10 1 0 0 ictus-1 ictus-1-gui ictus 0 -9 0 10
-262144 -128992 -128992 0 1;
#X obj 61 90 vsl 15 128 1 10 0 0 beat-1 beat-1-gui beat 0 -9 0 10 -262144
-128992 -128992 0 1;
#X obj 98 90 vsl 15 128 10 1 0 0 density-1 density-1-gui density 0
-9 0 10 -262144 -128992 -128992 0 1;
#N canvas 1 68 450 300 instruments 0;
#X obj 108 162 gamelan-tables;
#X obj 63 55 gamelan-play 1;
#X obj 62 76 gamelan-play 2;
#X obj 63 97 gamelan-play 3;
#X obj 62 118 gamelan-play 4;
#X obj 62 138 gamelan-play 5;
#X obj 154 55 gamelan-play 6;
#X obj 153 76 gamelan-play 7;
#X obj 154 97 gamelan-play 8;
#X obj 153 118 gamelan-play 9;
#X obj 153 138 gamelan-play 0;
#X obj 268 150 dac~;
#X obj 272 56 catch~ gamelan-out;
#X obj 271 124 *~ 0.1;
#X obj 272 98 *~;
#X obj 316 95 line~;
#X obj 396 43 r mastervol;
#X msg 396 71 \$1 50;
#X obj 5 207 table section-1 10;
#X obj 119 206 table section-2 10;
#X obj 238 206 table section-3 10;
#X obj 352 205 table section-4 10;
#X obj 125 231 table section-5 10;
#X obj 239 230 table section-6 10;
#N canvas 1 59 450 300 fill-sections-randomly 0;
#X obj 141 38 until;
#X msg 142 15 6;
#X obj 141 64 int;
#X obj 172 66 + 1;
#X msg 185 17 0;
#X obj 206 121 until;
#X obj 206 147 int;
#X obj 237 149 + 1;
#X msg 250 100 0;
#X msg 207 98 10;
#X obj 266 150 t f f b;
#X obj 302 178 random 130;
#X obj 252 219 pack f f f;
#X obj 201 67 t f b b f;
#X msg 252 248 \; section-\$3 \$1 \$2;
#X obj 66 30 t b b;
#X obj 68 9 inlet;
#X connect 0 0 2 0;
#X connect 1 0 0 0;
#X connect 2 0 3 0;
#X connect 3 0 13 0;
#X connect 4 0 2 1;
#X connect 5 0 6 0;
#X connect 6 0 7 0;
#X connect 7 0 10 0;
#X connect 8 0 6 1;
#X connect 9 0 5 0;
#X connect 10 0 6 1;
#X connect 10 1 12 0;
#X connect 10 2 11 0;
#X connect 11 0 12 1;
#X connect 12 0 14 0;
#X connect 13 0 2 1;
#X connect 13 1 9 0;
#X connect 13 2 8 0;
#X connect 13 3 12 2;
#X connect 15 0 1 0;
#X connect 15 1 4 0;
#X connect 16 0 15 0;
#X restore 76 252 pd fill-sections-randomly;
#X obj 79 230 bng 15 250 50 0 empty empty empty 17 7 0 10 -262144 -1
-1;
#X obj 25 232 loadbang;
#X connect 12 0 14 0;
#X connect 13 0 11 0;
#X connect 13 0 11 1;
#X connect 14 0 13 0;
#X connect 15 0 14 1;
#X connect 16 0 17 0;
#X connect 17 0 15 0;
#X connect 25 0 24 0;
#X connect 26 0 24 0;
#X restore 642 120 pd instruments;
#X obj 564 247 vsl 15 128 0 1 0 0 mastervol empty mastervol 0 -9 0
10 -262144 -1 -1 0 1;
#X obj 693 194 vradio 15 1 0 6 empty section-gui empty 0 -8 0 10 -262144
-1 -1 0;
#X obj 693 291 + 1;
#X obj 693 315 s section;
#N canvas 1 71 450 331 control-internals 0;
#X obj 97 71 % 10;
#X obj 148 249 pack;
#X msg 147 276 \; rotate-gamelan-\$1 \$2;
#X msg 231 153 set section-\$1;
#X obj 176 219 tabread;
#X obj 148 220 f;
#X obj 151 169 random;
#X obj 152 195 sel 0;
#X obj 288 83 r beat;
#X obj 344 84 r density;
#X obj 90 8 r tick;
#X obj 273 113 int;
#X obj 172 13 r ictus;
#X obj 153 121 % 10;
#X obj 174 41 int;
#X obj 97 120 int;
#X obj 124 121 + 1;
#X obj 341 115 int;
#X obj 97 96 sel 0;
#X obj 248 18 r section;
#X obj 151 144 t b f f f f;
#X obj 89 35 spigot 1;
#X obj 254 210 sel 0;
#X obj 371 17 r mute;
#X msg 369 39 0;
#X msg 207 82 1;
#X obj 138 14 f 1;
#X obj 213 56 r unmute;
#X connect 0 0 18 0;
#X connect 1 0 2 0;
#X connect 3 0 4 0;
#X connect 4 0 1 1;
#X connect 5 0 1 0;
#X connect 6 0 7 0;
#X connect 7 0 5 0;
#X connect 8 0 11 0;
#X connect 9 0 17 0;
#X connect 10 0 21 0;
#X connect 11 0 13 1;
#X connect 12 0 14 0;
#X connect 13 0 20 0;
#X connect 14 0 0 1;
#X connect 15 0 16 0;
#X connect 16 0 13 0;
#X connect 17 0 6 1;
#X connect 18 0 15 0;
#X connect 19 0 3 0;
#X connect 20 0 6 0;
#X connect 20 1 5 1;
#X connect 20 2 4 0;
#X connect 20 3 15 1;
#X connect 20 4 22 0;
#X connect 21 0 0 0;
#X connect 22 0 26 0;
#X connect 23 0 24 0;
#X connect 24 0 26 1;
#X connect 25 0 26 0;
#X connect 26 0 21 1;
#X connect 27 0 25 0;
#X restore 641 146 pd control-internals;
#X obj 490 36 bng 15 250 50 0 mute empty empty 17 7 0 10 -258113 -1
-1;
#X obj 490 55 bng 15 250 50 0 unmute empty empty 17 7 0 10 -4034 -1
-1;
#N canvas 1 62 450 300 setup 1;
#X obj 91 54 declare -path internals;
#X obj 89 76 loadbang;
#X msg 90 99 \; pd dsp 1 \; section-gui 0 \; ictus-gui 1 \; beat-gui
10 \; density-gui 1;
#X connect 1 0 2 0;
#X restore 642 68 pd setup;
#N canvas 1 68 450 300 metronome 0;
#X obj 63 250 declare -path SyncJams/pure-data;
#X obj 150 134 syncjams;
#X obj 151 202 s tick;
#X obj 148 178 route tick;
#X msg 213 70 set-state /BPM \$1;
#X floatatom 219 36 5 0 0 0 - - -, f 5;
#X connect 1 0 3 0;
#X connect 3 0 2 0;
#X connect 4 0 1 0;
#X connect 5 0 4 0;
#X restore 642 94 pd metronome;
#X obj 163 90 vsl 15 128 10 1 0 0 ictus-2 ictus-2-gui ictus 0 -9 0
10 -262144 -1 -1 0 1;
#X obj 198 90 vsl 15 128 1 10 0 0 beat-2 beat-2-gui beat 0 -9 0 10
-262144 -1 -1 0 1;
#X obj 235 90 vsl 15 128 10 1 0 0 density-2 density-2-gui density 0
-9 0 10 -262144 -1 -1 0 1;
#X obj 320 90 vsl 15 128 10 1 0 0 ictus-3 ictus-3-gui ictus 0 -9 0
10 -262144 -1 -1 0 1;
#X obj 355 90 vsl 15 128 1 10 0 0 beat-3 beat-3-gui beat 0 -9 0 10
-262144 -1 -1 0 1;
#X obj 392 90 vsl 15 128 10 1 0 0 density-3 density-3-gui density 0
-9 0 10 -262144 -1 -1 0 1;
#X obj 25 292 vsl 15 128 10 1 0 0 ictus-4 ictus-4-gui ictus 0 -9 0
10 -262144 -1 -1 0 1;
#X obj 60 292 vsl 15 128 1 10 0 0 beat-4 beat-4-gui beat 0 -9 0 10
-262144 -1 -1 0 1;
#X obj 97 292 vsl 15 128 10 1 0 0 density-4 density-4-gui density 0
-9 0 10 -262144 -1 -1 0 1;
#X obj 162 292 vsl 15 128 10 1 0 0 ictus-5 ictus-5-gui ictus 0 -9 0
10 -262144 -1 -1 0 1;
#X obj 197 292 vsl 15 128 1 10 0 0 beat-5 beat-5-gui beat 0 -9 0 10
-262144 -1 -1 0 1;
#X obj 234 292 vsl 15 128 10 1 0 0 density-5 density-5-gui density
0 -9 0 10 -262144 -1 -1 0 1;
#X obj 319 292 vsl 15 128 10 1 0 0 ictus-6 ictus-6-gui ictus 0 -9 0
10 -262144 -1 -1 0 1;
#X obj 354 292 vsl 15 128 1 10 0 0 beat-6 beat-6-gui beat 0 -9 0 10
-262144 -1 -1 0 1;
#X obj 391 292 vsl 15 128 10 1 0 0 density-6 density-6-gui density
0 -9 0 10 -262144 -1 -1 0 1;
#N canvas 1 59 450 300 networking 0;
#X obj 146 147 netsend;
#X obj 146 172 tgl 15 0 empty empty empty 17 7 0 10 -262144 -1 -1 0
1;
#X msg 105 73 disconnect;
#X obj 126 216 s connected;
#X msg 208 124 disconnect \, connect \$1 13033;
#X obj 208 78 spigot 1;
#X obj 168 194 == 0;
#X obj 208 101 symbol;
#X obj 208 55 netreceive -u 13034;
#X connect 0 0 1 0;
#X connect 1 0 3 0;
#X connect 1 0 6 0;
#X connect 2 0 0 0;
#X connect 4 0 0 0;
#X connect 5 0 7 0;
#X connect 6 0 5 1;
#X connect 7 0 4 0;
#X connect 8 0 5 0;
#X restore 643 396 pd networking;
#X msg 501 430 \; ictus-1-gui color 0 \$1 \$1 \; beat-1-gui color 0
\$1 \$1 \; density-1-gui color 0 \$1 \$1;
#X msg 502 406 11;
#X msg 539 408 22;
#X obj 472 141 f \$1;
#X obj 467 170 print player;
#X connect 5 0 6 0;
#X connect 6 0 7 0;
#X connect 30 0 29 0;
#X connect 31 0 29 0;
#X connect 32 0 33 0;
