#N canvas 376 622 283 67 10;
#X declare -path ../SyncJams/pure-data;
#N canvas 676 109 586 431 internals 0;
#X obj 174 17 key;
#X obj 207 107 mtof;
#X obj 175 40 moses 0;
#N canvas 491 473 450 300 trickle 0;
#X obj 140 64 list prepend;
#X obj 128 154 list split 1;
#X obj 76 150 list;
#X obj 53 105 spigot 1;
#X msg 245 95 1;
#X obj 148 118 t a a b;
#X obj 125 220 outlet;
#X obj 141 3 inlet;
#X msg 198 178 0;
#X obj 27 32 syncjams foo \, bpm 652;
#X obj 27 54 route tick;
#X msg 36 78 bang;
#X obj 335 111 % 1000;
#X obj 337 139 - 500;
#X obj 337 166 abs;
#X obj 338 190 / 1000;
#X obj 339 234 + 3.47;
#X obj 333 262 s resonance;
#X connect 0 0 5 0;
#X connect 1 0 6 0;
#X connect 1 1 2 1;
#X connect 1 1 0 1;
#X connect 1 2 8 0;
#X connect 2 0 1 0;
#X connect 3 0 2 0;
#X connect 4 0 3 1;
#X connect 5 0 2 1;
#X connect 5 1 0 1;
#X connect 5 2 4 0;
#X connect 7 0 0 0;
#X connect 8 0 3 1;
#X connect 9 0 10 0;
#X connect 10 0 11 0;
#X connect 10 0 12 0;
#X connect 11 0 3 0;
#X connect 12 0 13 0;
#X connect 13 0 14 0;
#X connect 14 0 15 0;
#X connect 15 0 16 0;
#X connect 16 0 17 0;
#X restore 207 87 pd trickle;
#X obj 120 332 dac~ 1 2 3 4;
#N canvas 27 190 450 300 one_chan 0;
#X obj 169 80 bob~;
#X obj 170 106 hip~ 5;
#X obj 154 198 outlet~;
#X obj 221 10 inlet;
#X obj 312 73 loadbang;
#X msg 320 39 resonance 3.9;
#X msg 92 21 0;
#X obj 93 48 tabplay~ impulse;
#X obj 243 61 sig~;
#X obj 309 192 switch~;
#X obj 217 34 t b f b b;
#X msg 314 161 1;
#X msg 279 162 0;
#X obj 271 133 del 250;
#X msg 263 94 stop \, bang;
#X obj 30 236 r resonance;
#X msg 45 265 resonance \$1;
#X connect 0 0 1 0;
#X connect 1 0 2 0;
#X connect 3 0 10 0;
#X connect 4 0 5 0;
#X connect 5 0 0 0;
#X connect 6 0 7 0;
#X connect 7 0 0 0;
#X connect 8 0 0 1;
#X connect 10 0 6 0;
#X connect 10 1 8 0;
#X connect 10 2 14 0;
#X connect 10 3 11 0;
#X connect 11 0 9 0;
#X connect 12 0 9 0;
#X connect 13 0 12 0;
#X connect 14 0 13 0;
#X connect 15 0 16 0;
#X connect 16 0 0 0;
#X restore 205 254 pd one_chan;
#X obj 236 218 route 0 1 2 3;
#X obj 215 138 t b f;
#X obj 225 166 int;
#X obj 251 168 + 1;
#X obj 238 197 pack;
#X obj 306 168 t f f;
#X obj 308 294 loadbang;
#X obj 320 12 table impulse 1;
#X obj 208 65 spigot;
#X obj 240 39 r \$0-typeaway;
#X obj 280 169 % 2;
#X msg 294 142 4;
#N canvas 27 190 450 300 one_chan 0;
#X obj 169 80 bob~;
#X obj 170 106 hip~ 5;
#X obj 154 198 outlet~;
#X obj 221 10 inlet;
#X obj 312 73 loadbang;
#X msg 303 107 resonance 3.9;
#X msg 92 21 0;
#X obj 93 48 tabplay~ impulse;
#X obj 243 61 sig~;
#X obj 309 192 switch~;
#X obj 217 34 t b f b b;
#X msg 314 161 1;
#X msg 279 162 0;
#X obj 271 133 del 250;
#X msg 263 94 stop \, bang;
#X obj 30 236 r resonance;
#X msg 45 265 resonance \$1;
#X connect 0 0 1 0;
#X connect 1 0 2 0;
#X connect 3 0 10 0;
#X connect 4 0 5 0;
#X connect 5 0 0 0;
#X connect 6 0 7 0;
#X connect 7 0 0 0;
#X connect 8 0 0 1;
#X connect 10 0 6 0;
#X connect 10 1 8 0;
#X connect 10 2 14 0;
#X connect 10 3 11 0;
#X connect 11 0 9 0;
#X connect 12 0 9 0;
#X connect 13 0 12 0;
#X connect 14 0 13 0;
#X connect 15 0 16 0;
#X connect 16 0 0 0;
#X restore 284 255 pd one_chan;
#N canvas 268 207 450 300 coded-keys 0;
#X obj 98 76 keyname;
#X obj 98 126 route 1;
#X obj 98 102 pack f symbol;
#X msg 99 189 27;
#X obj 101 226 outlet;
#X msg 132 189 27 91 65;
#X msg 157 211 27 91 66;
#X msg 199 189 27 91 68;
#X msg 224 211 27 91 67;
#X obj 98 153 route Escape Up Down Left Right Space;
#X msg 283 189 32;
#X connect 0 0 2 0;
#X connect 0 1 2 1;
#X connect 1 0 9 0;
#X connect 2 0 1 0;
#X connect 3 0 4 0;
#X connect 5 0 4 0;
#X connect 6 0 4 0;
#X connect 7 0 4 0;
#X connect 8 0 4 0;
#X connect 9 0 3 0;
#X connect 9 1 5 0;
#X connect 9 2 6 0;
#X connect 9 3 7 0;
#X connect 9 4 8 0;
#X connect 9 5 10 0;
#X connect 10 0 4 0;
#X restore 201 16 pd coded-keys;
#X msg 324 325 \; pd dsp 1 \; impulse 0 1 \; typeaway-r 1;
#X obj 63 369 declare -path ../SyncJams/pure-data;
#N canvas 27 190 450 300 one_chan 0;
#X obj 169 80 bob~;
#X obj 170 106 hip~ 5;
#X obj 154 198 outlet~;
#X obj 221 10 inlet;
#X obj 312 73 loadbang;
#X msg 303 107 resonance 3.9;
#X msg 92 21 0;
#X obj 93 48 tabplay~ impulse;
#X obj 243 61 sig~;
#X obj 309 192 switch~;
#X obj 217 34 t b f b b;
#X msg 314 161 1;
#X msg 279 162 0;
#X obj 271 133 del 250;
#X msg 263 94 stop \, bang;
#X obj 30 236 r resonance;
#X msg 45 265 resonance \$1;
#X connect 0 0 1 0;
#X connect 1 0 2 0;
#X connect 3 0 10 0;
#X connect 4 0 5 0;
#X connect 5 0 0 0;
#X connect 6 0 7 0;
#X connect 7 0 0 0;
#X connect 8 0 0 1;
#X connect 10 0 6 0;
#X connect 10 1 8 0;
#X connect 10 2 14 0;
#X connect 10 3 11 0;
#X connect 11 0 9 0;
#X connect 12 0 9 0;
#X connect 13 0 12 0;
#X connect 14 0 13 0;
#X connect 15 0 16 0;
#X connect 16 0 0 0;
#X restore 362 255 pd one_chan;
#N canvas 27 190 450 300 one_chan 0;
#X obj 169 80 bob~;
#X obj 170 106 hip~ 5;
#X obj 154 198 outlet~;
#X obj 221 10 inlet;
#X obj 312 73 loadbang;
#X msg 303 107 resonance 3.9;
#X msg 92 21 0;
#X obj 93 48 tabplay~ impulse;
#X obj 243 61 sig~;
#X obj 309 192 switch~;
#X obj 217 34 t b f b b;
#X msg 314 161 1;
#X msg 279 162 0;
#X obj 271 133 del 250;
#X msg 263 94 stop \, bang;
#X obj 30 236 r resonance;
#X msg 45 265 resonance \$1;
#X connect 0 0 1 0;
#X connect 1 0 2 0;
#X connect 3 0 10 0;
#X connect 4 0 5 0;
#X connect 5 0 0 0;
#X connect 6 0 7 0;
#X connect 7 0 0 0;
#X connect 8 0 0 1;
#X connect 10 0 6 0;
#X connect 10 1 8 0;
#X connect 10 2 14 0;
#X connect 10 3 11 0;
#X connect 11 0 9 0;
#X connect 12 0 9 0;
#X connect 13 0 12 0;
#X connect 14 0 13 0;
#X connect 15 0 16 0;
#X connect 16 0 0 0;
#X restore 441 256 pd one_chan;
#N canvas 254 200 565 359 network-connection 0;
#X obj 218 -15 inlet;
#X msg 301 79 disconnect;
#X obj 247 132 s connected;
#X msg 283 31 disconnect \, connect \$1 13033;
#X obj 283 -15 spigot 1;
#X obj 278 106 == 0;
#X obj 283 -38 inlet;
#X obj 283 8 symbol;
#X msg 230 200 16;
#X obj 231 175 sel 1 0;
#X msg 263 201 13;
#X msg 233 229 \; connected color \$1 22 0;
#X obj 219 102 t f f f;
#X obj 221 79 tgl 15 0 empty empty empty 17 7 0 10 -262144 -1 -1 0
1;
#X obj 221 54 netsend -b;
#X msg 224 8 send \$1;
#X connect 0 0 15 0;
#X connect 1 0 14 0;
#X connect 3 0 14 0;
#X connect 4 0 7 0;
#X connect 5 0 4 1;
#X connect 6 0 4 0;
#X connect 7 0 3 0;
#X connect 8 0 11 0;
#X connect 9 0 8 0;
#X connect 9 1 10 0;
#X connect 10 0 11 0;
#X connect 12 0 9 0;
#X connect 12 1 2 0;
#X connect 12 2 5 0;
#X connect 13 0 12 0;
#X connect 14 0 13 0;
#X connect 15 0 14 0;
#X restore 398 192 pd network-connection;
#N canvas 1 59 450 300 get-server-ip 0;
#X obj 147 83 netreceive -u 13034;
#X obj 146 116 outlet;
#X connect 0 0 1 0;
#X restore 451 143 pd get-server-ip;
#X connect 0 0 2 0;
#X connect 1 0 7 0;
#X connect 2 1 14 0;
#X connect 3 0 1 0;
#X connect 3 0 24 0;
#X connect 5 0 4 0;
#X connect 6 0 5 0;
#X connect 6 1 18 0;
#X connect 6 2 22 0;
#X connect 6 3 23 0;
#X connect 7 0 8 0;
#X connect 7 1 10 1;
#X connect 8 0 9 0;
#X connect 9 0 16 0;
#X connect 10 0 6 0;
#X connect 11 0 8 1;
#X connect 11 1 10 0;
#X connect 12 0 20 0;
#X connect 14 0 3 0;
#X connect 15 0 14 1;
#X connect 16 0 11 0;
#X connect 17 0 16 1;
#X connect 18 0 4 1;
#X connect 19 0 14 0;
#X connect 22 0 4 2;
#X connect 23 0 4 3;
#X connect 25 0 24 1;
#X restore 19 339 pd internals;
#X obj 27 43 tgl 15 0 \$0-typeaway typeaway-r empty 17 7 0 10 -262144
-1 -1 1 1;
#X text 49 43 uncheck to use keyboard silently;
#X text 107 8 CLIX, f 5;
#X obj 248 6 tgl 15 0 empty connected empty 17 7 0 10 -258113 -1 -262144
0 1;
#X text 181 6 connected?;
