#N canvas 370 354 302 201 10;
#X declare -path ../SyncJams/pure-data;
#N canvas 648 148 586 431 internals 0;
#X obj 174 17 key;
#X obj 207 107 mtof;
#X obj 175 40 moses 0;
#N canvas 489 467 450 300 trickle 0;
#X obj 140 64 list prepend;
#X obj 128 154 list split 1;
#X obj 76 150 list;
#X obj 53 105 spigot 1;
#X msg 245 95 1;
#X obj 148 118 t a a b;
#X obj 125 220 outlet;
#X obj 141 3 inlet;
#X msg 198 178 0;
#X msg 36 78 bang;
#X obj 335 111 % 1000;
#X obj 337 139 - 500;
#X obj 337 166 abs;
#X obj 338 190 / 1000;
#X obj 339 234 + 3.47;
#X obj 333 262 s resonance;
#X obj 27 54 route sub-tick;
#X obj 28 32 syncjams foo \, bpm 55;
#X connect 0 0 5 0;
#X connect 1 0 6 0;
#X connect 1 1 2 1;
#X connect 1 1 0 1;
#X connect 1 2 8 0;
#X connect 2 0 1 0;
#X connect 3 0 2 0;
#X connect 4 0 3 1;
#X connect 5 0 2 1;
#X connect 5 1 0 1;
#X connect 5 2 4 0;
#X connect 7 0 0 0;
#X connect 8 0 3 1;
#X connect 9 0 3 0;
#X connect 10 0 11 0;
#X connect 11 0 12 0;
#X connect 12 0 13 0;
#X connect 13 0 14 0;
#X connect 14 0 15 0;
#X connect 16 0 9 0;
#X connect 16 0 10 0;
#X connect 17 0 16 0;
#X restore 207 87 pd trickle;
#X obj 120 332 dac~ 1 2 3 4;
#N canvas 23 196 450 300 one_chan 0;
#X obj 156 119 bob~;
#X obj 157 145 hip~ 5;
#X obj 154 198 outlet~;
#X obj 221 10 inlet;
#X obj 359 77 loadbang;
#X msg 92 21 0;
#X obj 93 48 tabplay~ impulse;
#X obj 243 61 sig~;
#X obj 309 192 switch~;
#X obj 217 34 t b f b b;
#X msg 314 161 1;
#X msg 279 162 0;
#X obj 271 133 del 250;
#X msg 263 94 stop \, bang;
#X obj 29 169 r resonance;
#X obj 157 174 *~ 5;
#X obj 29 216 line~;
#X msg 30 192 \$1 100;
#X msg 369 113 3.9;
#X connect 0 0 1 0;
#X connect 1 0 15 0;
#X connect 3 0 9 0;
#X connect 4 0 18 0;
#X connect 5 0 6 0;
#X connect 6 0 0 0;
#X connect 7 0 0 1;
#X connect 9 0 5 0;
#X connect 9 1 7 0;
#X connect 9 2 13 0;
#X connect 9 3 10 0;
#X connect 10 0 8 0;
#X connect 11 0 8 0;
#X connect 12 0 11 0;
#X connect 13 0 12 0;
#X connect 14 0 17 0;
#X connect 15 0 2 0;
#X connect 16 0 0 2;
#X connect 17 0 16 0;
#X connect 18 0 0 2;
#X restore 205 254 pd one_chan;
#X obj 236 218 route 0 1 2 3;
#X obj 215 138 t b f;
#X obj 225 166 int;
#X obj 251 168 + 1;
#X obj 238 197 pack;
#X obj 306 168 t f f;
#X obj 308 294 loadbang;
#X obj 320 12 table impulse 1;
#X obj 280 169 % 2;
#X msg 294 142 4;
#N canvas 268 207 450 300 coded-keys 0;
#X obj 98 76 keyname;
#X obj 98 126 route 1;
#X obj 98 102 pack f symbol;
#X msg 99 189 27;
#X obj 101 226 outlet;
#X msg 132 189 27 91 65;
#X msg 157 211 27 91 66;
#X msg 199 189 27 91 68;
#X msg 224 211 27 91 67;
#X obj 98 153 route Escape Up Down Left Right Space;
#X msg 283 189 32;
#X connect 0 0 2 0;
#X connect 0 1 2 1;
#X connect 1 0 9 0;
#X connect 2 0 1 0;
#X connect 3 0 4 0;
#X connect 5 0 4 0;
#X connect 6 0 4 0;
#X connect 7 0 4 0;
#X connect 8 0 4 0;
#X connect 9 0 3 0;
#X connect 9 1 5 0;
#X connect 9 2 6 0;
#X connect 9 3 7 0;
#X connect 9 4 8 0;
#X connect 9 5 10 0;
#X connect 10 0 4 0;
#X restore 201 16 pd coded-keys;
#X obj 63 369 declare -path ../SyncJams/pure-data;
#N canvas 406 362 565 359 network-connection 0;
#X obj 42 27 inlet;
#X msg 301 79 disconnect;
#X obj 222 106 == 0;
#X obj 221 79 tgl 15 0 empty empty empty 17 7 0 10 -262144 -1 -1 1
1;
#X obj 286 1 loadbang;
#X obj 44 61 oscformat clix;
#X obj 46 91 list prepend send;
#X obj 48 119 list trim;
#X obj 221 134 sel 1;
#X obj 222 167 del 2000;
#X obj 221 54 netsend -u -b;
#X msg 283 31 disconnect \, connect 255.255.255.255 13033;
#X connect 0 0 5 0;
#X connect 1 0 10 0;
#X connect 2 0 8 0;
#X connect 3 0 2 0;
#X connect 4 0 11 0;
#X connect 5 0 6 0;
#X connect 6 0 7 0;
#X connect 7 0 10 0;
#X connect 8 0 9 0;
#X connect 9 0 11 0;
#X connect 10 0 3 0;
#X connect 11 0 10 0;
#X restore 381 174 pd network-connection;
#X obj 348 73 r \$0-4chan;
#X obj 341 106 sel 0 1;
#X msg 293 110 2;
#N canvas 23 196 450 300 one_chan 0;
#X obj 156 119 bob~;
#X obj 157 145 hip~ 5;
#X obj 154 198 outlet~;
#X obj 221 10 inlet;
#X obj 359 77 loadbang;
#X msg 92 21 0;
#X obj 93 48 tabplay~ impulse;
#X obj 243 61 sig~;
#X obj 309 192 switch~;
#X obj 217 34 t b f b b;
#X msg 314 161 1;
#X msg 279 162 0;
#X obj 271 133 del 250;
#X msg 263 94 stop \, bang;
#X obj 29 169 r resonance;
#X obj 157 174 *~ 5;
#X obj 29 216 line~;
#X msg 30 192 \$1 100;
#X msg 369 113 3.9;
#X connect 0 0 1 0;
#X connect 1 0 15 0;
#X connect 3 0 9 0;
#X connect 4 0 18 0;
#X connect 5 0 6 0;
#X connect 6 0 0 0;
#X connect 7 0 0 1;
#X connect 9 0 5 0;
#X connect 9 1 7 0;
#X connect 9 2 13 0;
#X connect 9 3 10 0;
#X connect 10 0 8 0;
#X connect 11 0 8 0;
#X connect 12 0 11 0;
#X connect 13 0 12 0;
#X connect 14 0 17 0;
#X connect 15 0 2 0;
#X connect 16 0 0 2;
#X connect 17 0 16 0;
#X connect 18 0 0 2;
#X restore 281 254 pd one_chan;
#N canvas 23 196 450 300 one_chan 0;
#X obj 156 119 bob~;
#X obj 157 145 hip~ 5;
#X obj 154 198 outlet~;
#X obj 221 10 inlet;
#X obj 359 77 loadbang;
#X msg 92 21 0;
#X obj 93 48 tabplay~ impulse;
#X obj 243 61 sig~;
#X obj 309 192 switch~;
#X obj 217 34 t b f b b;
#X msg 314 161 1;
#X msg 279 162 0;
#X obj 271 133 del 250;
#X msg 263 94 stop \, bang;
#X obj 29 169 r resonance;
#X obj 157 174 *~ 5;
#X obj 29 216 line~;
#X msg 30 192 \$1 100;
#X msg 369 113 3.9;
#X connect 0 0 1 0;
#X connect 1 0 15 0;
#X connect 3 0 9 0;
#X connect 4 0 18 0;
#X connect 5 0 6 0;
#X connect 6 0 0 0;
#X connect 7 0 0 1;
#X connect 9 0 5 0;
#X connect 9 1 7 0;
#X connect 9 2 13 0;
#X connect 9 3 10 0;
#X connect 10 0 8 0;
#X connect 11 0 8 0;
#X connect 12 0 11 0;
#X connect 13 0 12 0;
#X connect 14 0 17 0;
#X connect 15 0 2 0;
#X connect 16 0 0 2;
#X connect 17 0 16 0;
#X connect 18 0 0 2;
#X restore 357 255 pd one_chan;
#N canvas 23 196 450 300 one_chan 0;
#X obj 156 119 bob~;
#X obj 157 145 hip~ 5;
#X obj 154 198 outlet~;
#X obj 221 10 inlet;
#X obj 359 77 loadbang;
#X msg 92 21 0;
#X obj 93 48 tabplay~ impulse;
#X obj 243 61 sig~;
#X obj 309 192 switch~;
#X obj 217 34 t b f b b;
#X msg 314 161 1;
#X msg 279 162 0;
#X obj 271 133 del 250;
#X msg 263 94 stop \, bang;
#X obj 29 169 r resonance;
#X obj 157 174 *~ 5;
#X obj 29 216 line~;
#X msg 30 192 \$1 100;
#X msg 369 113 3.9;
#X connect 0 0 1 0;
#X connect 1 0 15 0;
#X connect 3 0 9 0;
#X connect 4 0 18 0;
#X connect 5 0 6 0;
#X connect 6 0 0 0;
#X connect 7 0 0 1;
#X connect 9 0 5 0;
#X connect 9 1 7 0;
#X connect 9 2 13 0;
#X connect 9 3 10 0;
#X connect 10 0 8 0;
#X connect 11 0 8 0;
#X connect 12 0 11 0;
#X connect 13 0 12 0;
#X connect 14 0 17 0;
#X connect 15 0 2 0;
#X connect 16 0 0 2;
#X connect 17 0 16 0;
#X connect 18 0 0 2;
#X restore 433 255 pd one_chan;
#X obj 57 193 random 128;
#X msg 56 222 \; clix-color color \$1 0 0;
#X floatatom 24 279 5 0 0 0 - - -, f 5;
#X msg 30 158 0;
#X obj 34 105 loadbang;
#X msg 95 149 bang;
#X msg 324 325 \; pd dsp 1 \; impulse 0 1;
#X obj 262 41 tgl 15 0 empty empty empty 17 7 0 10 -262144 -1 -1 0
1;
#X obj 224 66 spigot 1;
#X connect 0 0 2 0;
#X connect 1 0 7 0;
#X connect 2 1 33 0;
#X connect 3 0 1 0;
#X connect 3 0 18 0;
#X connect 3 0 30 0;
#X connect 5 0 4 0;
#X connect 6 0 5 0;
#X connect 6 1 22 0;
#X connect 6 2 23 0;
#X connect 6 3 24 0;
#X connect 7 0 8 0;
#X connect 7 1 10 1;
#X connect 8 0 9 0;
#X connect 9 0 14 0;
#X connect 10 0 6 0;
#X connect 11 0 8 1;
#X connect 11 1 10 0;
#X connect 12 0 31 0;
#X connect 14 0 11 0;
#X connect 15 0 14 1;
#X connect 16 0 33 0;
#X connect 19 0 20 0;
#X connect 20 0 21 0;
#X connect 20 1 15 0;
#X connect 21 0 14 1;
#X connect 22 0 4 1;
#X connect 23 0 4 2;
#X connect 24 0 4 3;
#X connect 25 0 26 0;
#X connect 25 0 27 0;
#X connect 28 0 26 0;
#X connect 29 0 28 0;
#X connect 30 0 25 0;
#X connect 32 0 33 1;
#X connect 33 0 3 0;
#X restore 10 177 pd internals;
#X obj 1 1 cnv 15 300 200 empty empty CLIX 20 20 0 20 -16662 -262144
0;
#X obj 238 176 tgl 15 0 \$0-4chan 4chan-r 4_chan 17 7 0 10 -260097
-1 -262144 0 1;
#X obj 118 70 tgl 50 0 nada clix-color empty 17 7 0 10 -90881 -262144
-262144 0 1;
