#N canvas 403 103 879 665 10;
#X obj 167 331 s_blsquare;
#X obj 167 287 loadbang;
#X obj 259 184 osc~ 0.5;
#X obj 311 245 +~ 0.5;
#X obj 259 157 line~;
#X obj 326 130 line~;
#X obj 311 220 *~;
#X obj 325 573 dac~;
#X obj 253 315 loadbang;
#X obj 259 87 r mod1;
#X obj 326 86 r mod2;
#X obj 173 396 *~;
#X obj 253 363 line~;
#X msg 253 339 0 \, 1 120000;
#X obj 354 366 r vol;
#X obj 354 391 dbtorms;
#X msg 354 415 \$1 250;
#X obj 354 440 line~;
#X obj 174 457 *~;
#X msg 410 398 1;
#X obj 410 375 loadbang;
#X msg 259 133 \$1 15000;
#X msg 326 108 \$1 10000;
#X obj 527 429 sin;
#X obj 533 376 * 6.28319;
#X obj 557 429 cos;
#X obj 532 400 t f f;
#X obj 525 176 +~ 1;
#X obj 524 202 *~ 0.5;
#X obj 568 239 snapshot~;
#X obj 351 543 *~;
#X obj 315 529 *~;
#X msg 500 514 \$1 10;
#X msg 576 516 \$1 10;
#X obj 494 540 line~;
#X obj 578 543 line~;
#X msg 636 161 1;
#X obj 613 195 metro 20;
#X obj 635 132 loadbang;
#X obj 522 72 r mod1;
#X obj 524 148 osc~ 0.0625;
#X obj 521 99 t f f;
#X obj 522 125 *;
#X msg 167 309 55;
#X obj 259 110 * 110;
#X obj 169 364 lop~ 1000;
#X connect 0 0 45 0;
#X connect 1 0 43 0;
#X connect 2 0 6 0;
#X connect 3 0 0 1;
#X connect 4 0 2 0;
#X connect 5 0 6 1;
#X connect 6 0 3 0;
#X connect 8 0 13 0;
#X connect 9 0 44 0;
#X connect 10 0 22 0;
#X connect 11 0 18 0;
#X connect 12 0 11 1;
#X connect 13 0 12 0;
#X connect 14 0 15 0;
#X connect 15 0 16 0;
#X connect 16 0 17 0;
#X connect 17 0 18 1;
#X connect 18 0 31 0;
#X connect 18 0 30 0;
#X connect 19 0 17 0;
#X connect 20 0 19 0;
#X connect 21 0 4 0;
#X connect 22 0 5 0;
#X connect 23 0 32 0;
#X connect 24 0 26 0;
#X connect 25 0 33 0;
#X connect 26 0 23 0;
#X connect 26 1 25 0;
#X connect 27 0 28 0;
#X connect 28 0 29 0;
#X connect 29 0 24 0;
#X connect 30 0 7 1;
#X connect 31 0 7 0;
#X connect 32 0 34 0;
#X connect 33 0 35 0;
#X connect 34 0 31 1;
#X connect 35 0 30 1;
#X connect 36 0 37 0;
#X connect 37 0 29 0;
#X connect 38 0 36 0;
#X connect 39 0 41 0;
#X connect 40 0 27 0;
#X connect 41 0 42 0;
#X connect 41 1 42 1;
#X connect 42 0 40 0;
#X connect 43 0 0 0;
#X connect 44 0 21 0;
#X connect 45 0 11 0;
