#N canvas 0 22 944 722 10;
#X obj 143 537 tabread4~ soundfile1;
#X obj 175 663 dac~;
#X floatatom 143 365 5 0 0 0 Pitch - -, f 5;
#X obj 143 430 phasor~;
#X obj 143 512 +~;
#X obj 217 334 hsl 128 15 0 1 0 0 empty empty Time -2 -8 0 10 -262144
-1 -1 0 1;
#X obj 214 359 r filelength;
#X obj 214 386 *;
#X obj 472 340 random 2;
#X obj 472 367 sel 0 1;
#X obj 523 414 +;
#X obj 552 414 -;
#X floatatom 473 453 5 0 0 0 - - -, f 5;
#X floatatom 514 453 5 0 0 0 - - -, f 5;
#X obj 214 412 +;
#X obj 349 357 t b f;
#X obj 214 433 vline~;
#X obj 214 476 samphold~;
#X obj 523 250 loadbang;
#X obj 214 452 lop~ 0.1;
#X obj 143 390 vline~;
#X obj 143 409 lop~ 0.1;
#X obj 164 146 vsl 15 128 0.1 10 1 1 empty empty Time 0 -9 0 10 -191407
-1 -1 7299 1;
#X floatatom 185 256 5 0 0 0 - - -, f 5;
#X obj 105 146 vsl 15 128 0.1 10 1 1 empty empty Pitch 0 -9 0 10 -191407
-1 -1 2800 1;
#X floatatom 126 256 5 0 0 0 - - -, f 5;
#X text 120 113 Smoothing;
#X obj 523 387 random 500;
#X obj 224 146 vsl 15 128 30 800 0 1 empty empty Width 0 -9 0 10 -261682
-1 -1 6927 1;
#X floatatom 245 256 5 0 0 0 - - -, f 5;
#X obj 352 146 vsl 15 128 0 100 0 1 empty empty Volume 0 -9 0 10 -204800
-1 -1 9525 1;
#X floatatom 374 256 5 0 0 0 - - -, f 5;
#X text 248 111 Grain;
#X text 350 114 Master;
#X obj 143 343 r pitch;
#X obj 214 297 r time;
#X text 421 302 Grain Spacing;
#X obj 175 615 lop~ 4000;
#X obj 175 639 hip~ 100;
#X obj 284 146 vsl 15 128 5 150 0 1 empty empty Time 0 -9 0 10 -261682
-1 -1 12700 1;
#X floatatom 305 256 5 0 0 0 - - -, f 5;
#X obj 527 305 metro 1;
#X obj 289 538 tabread4~ soundfile1;
#X obj 289 513 +~;
#X obj 360 477 samphold~;
#X obj 289 447 wrap~;
#X obj 289 426 +~ 0.5;
#X obj 62 478 cos~;
#X obj 47 457 sig~ 1;
#X obj 47 504 -~;
#X obj 47 526 *~ 0.5;
#X obj 143 566 *~;
#X obj 440 512 cos~;
#X obj 425 491 sig~ 1;
#X obj 425 538 -~;
#X obj 425 560 *~ 0.5;
#X obj 289 567 *~;
#X obj 175 590 *~ 1;
#X obj 143 485 *~ 2000;
#X obj 289 490 *~ 2000;
#X text 18 558 Hanning Window;
#X text 460 533 Hanning Window;
#X obj 78 43 r pitch-smoothing;
#X obj 156 74 r time-smoothing;
#X obj 224 48 r grain-width;
#X obj 271 73 r grain-time;
#X obj 346 42 r mastervol;
#N canvas 0 22 450 300 load 1;
#X msg 101 125 read -resize \$1 soundfile1;
#X obj 101 152 soundfiler;
#X floatatom 101 176 10 0 0 0 - - -, f 10;
#X obj 101 199 s filelength;
#X obj 101 76 r filename;
#X obj 101 100 symbol;
#X connect 0 0 1 0;
#X connect 1 0 2 0;
#X connect 2 0 3 0;
#X connect 4 0 5 0;
#X connect 5 0 0 0;
#X restore 543 94 pd load;
#X obj 541 68 table soundfile1;
#X msg 524 276 1;
#X msg 657 350 \; pitch-smoothing 0.276 \; time-smoothing 1.411 \;
grain-width 450 \; grain-time 150 \; mastervol 75;
#X obj 411 624 / 40;
#X obj 631 273 soundfiler;
#X obj 633 299 s filelength;
#X msg 632 247 read -resize voice.wav soundfile1;
#X connect 0 0 51 0;
#X connect 2 0 20 0;
#X connect 3 0 17 1;
#X connect 3 0 46 0;
#X connect 3 0 47 0;
#X connect 3 0 58 0;
#X connect 4 0 0 0;
#X connect 5 0 7 0;
#X connect 6 0 7 1;
#X connect 7 0 14 0;
#X connect 8 0 9 0;
#X connect 9 0 10 0;
#X connect 9 1 11 0;
#X connect 10 0 12 0;
#X connect 11 0 13 0;
#X connect 12 0 15 0;
#X connect 13 0 15 0;
#X connect 14 0 16 0;
#X connect 15 0 14 0;
#X connect 15 0 5 0;
#X connect 15 1 14 1;
#X connect 16 0 19 0;
#X connect 17 0 4 1;
#X connect 18 0 69 0;
#X connect 18 0 70 0;
#X connect 18 0 74 0;
#X connect 19 0 17 0;
#X connect 19 0 44 0;
#X connect 20 0 21 0;
#X connect 21 0 3 0;
#X connect 22 0 19 1;
#X connect 22 0 23 0;
#X connect 24 0 25 0;
#X connect 24 0 21 1;
#X connect 27 0 10 1;
#X connect 27 0 11 1;
#X connect 28 0 29 0;
#X connect 28 0 27 1;
#X connect 30 0 31 0;
#X connect 30 0 71 0;
#X connect 34 0 2 0;
#X connect 35 0 5 0;
#X connect 37 0 38 0;
#X connect 38 0 1 0;
#X connect 38 0 1 1;
#X connect 39 0 40 0;
#X connect 39 0 41 1;
#X connect 41 0 8 0;
#X connect 41 0 27 0;
#X connect 42 0 56 0;
#X connect 43 0 42 0;
#X connect 44 0 43 1;
#X connect 45 0 44 1;
#X connect 45 0 52 0;
#X connect 45 0 59 0;
#X connect 46 0 45 0;
#X connect 47 0 49 1;
#X connect 48 0 49 0;
#X connect 49 0 50 0;
#X connect 50 0 51 1;
#X connect 51 0 57 0;
#X connect 52 0 54 1;
#X connect 53 0 54 0;
#X connect 54 0 55 0;
#X connect 55 0 56 1;
#X connect 56 0 57 0;
#X connect 57 0 37 0;
#X connect 58 0 4 0;
#X connect 59 0 43 0;
#X connect 62 0 24 0;
#X connect 63 0 22 0;
#X connect 64 0 28 0;
#X connect 65 0 39 0;
#X connect 66 0 30 0;
#X connect 69 0 41 0;
#X connect 71 0 57 1;
#X connect 72 0 73 0;
#X connect 74 0 72 0;
