#N canvas 441 183 772 598 10;
#X declare -lib iemlib2;
#X obj 101 101 cnv 15 198 98 empty empty empty 19 9 0 8 -228856 -262144
0;
#X obj 528 277 soundfiler;
#X obj 603 204 f \$0;
#X obj 321 312 tabread4~ \$0-loop;
#X obj 528 229 pack symbol f;
#X obj 323 264 phasor~;
#X obj 305 179 % 16;
#X obj 305 203 sel 0;
#X msg 307 231 0;
#X obj 323 286 *~;
#X obj 323 341 *~;
#X obj 434 364 line~;
#X obj 461 89 s get-tempo;
#X floatatom 358 210 5 0 0 0 - - -, f 5;
#X text 569 45 filename;
#X msg 528 253 read -resize \$1 \$2-loop;
#X obj 528 202 openpanel;
#X obj 461 37 loadbang;
#X msg 703 132 1;
#X obj 206 265 f;
#X msg 441 320 \$1 25;
#X msg 488 330 0 25;
#X obj 434 173 t f b f b;
#X obj 194 225 t b b b;
#X text 263 166 32;
#X msg 600 520 2;
#X obj 49 387 declare -lib iemlib2;
#X obj 181 355 splitfilename;
#X obj 101 182 cnv 15 178 17 empty \$0-canvas police32.wav 3 9 0 10
-262144 -66577 0;
#X obj 56 243 f \$0;
#X obj 86 207 t b a;
#X msg 48 296 \; \$1-canvas label \$2;
#X obj 55 268 pack f symbol;
#X obj 101 101 tgl 15 0 \$0-tog-onoff-rcv \$0-tog-onoff ON/OFF 19 9
0 8 -24198 -1 -1 1 1;
#X obj 176 101 bng 15 250 50 0 \$0-load-button-send \$0-load-button-rcv
LOAD 19 9 0 8 -4160 -1 -1;
#X obj 249 127 vradio 13 1 0 4 \$0-speed-send \$0-speed-rcv SPEED 0
-8 0 8 -262144 -1 -1 0;
#X text 263 125 4;
#X text 263 139 8;
#X text 263 152 16;
#N canvas 0 50 450 250 (subpatch) 0;
#X array \$0-loop 517340 float 2;
#X coords 0 1 517340 -1 130 40 1 0 0;
#X restore 105 135 graph;
#X obj 598 349 r /nanoKontrol/r/\$1;
#X obj 596 373 sel 127;
#X obj 461 62 t b b b b;
#X obj 60 68 symbol;
#X msg 61 43 READY;
#X obj 545 460 r /nanoKontrol/knob/\$1;
#X obj 543 482 / 32;
#X obj 545 504 int;
#X obj 381 455 sel 127;
#X obj 383 431 r /nanoKontrol/m/\$1;
#X obj 322 373 *~;
#X obj 284 117 vsl 10 75 0 1 0 0 \$0-vol-send \$0-vol-rcv VOL 0 -9
0 8 -260097 -1 -1 400 1;
#X obj 278 373 line~;
#X msg 278 350 \$1 50;
#X obj 174 414 r /nanoKontrol/slider/\$1;
#X obj 172 436 / 127;
#X obj 543 524 change;
#X obj 321 396 throw~ all-loops;
#X obj 265 247 sel 0 1;
#X obj 225 453 loadbang;
#X obj 564 61 t b a b b b;
#X msg 638 96 1;
#X obj 698 106 loadbang;
#X obj 284 222;
#X obj 284 244;
#X obj 312 515 s \$0-tog-onoff;
#X obj 178 515 r \$0-tog-onoff-rcv;
#X obj 101 119 cnv 14 100 14 empty empty empty 20 12 0 14 -228856 -66577
0;
#X obj 596 395 s \$0-load-button-rcv;
#X obj 644 30 r \$0-load-button-send;
#X msg 291 453 color 16 22 22;
#X msg 199 481 color 13 22 22;
#X obj 544 553 s \$0-speed-rcv;
#X obj 434 126 r \$0-speed-send;
#X obj 701 155 s \$0-vol-rcv;
#X obj 107 475 s \$0-vol-rcv;
#X obj 232 310 r \$0-vol-send;
#X obj 308 34 r climejam-pulse;
#X obj 327 90 r climejam-tempo;
#X floatatom 365 139 5 0 0 0 - - -, f 5;
#X obj 433 146 expr pow(2 \, $f1+2);
#X obj 359 239 expr $f1/(60*$f2);
#X connect 1 0 9 1;
#X connect 2 0 4 1;
#X connect 3 0 10 0;
#X connect 4 0 15 0;
#X connect 5 0 9 0;
#X connect 6 0 7 0;
#X connect 7 0 23 0;
#X connect 8 0 5 1;
#X connect 9 0 3 0;
#X connect 10 0 50 0;
#X connect 11 0 10 1;
#X connect 13 0 81 0;
#X connect 15 0 1 0;
#X connect 16 0 4 0;
#X connect 16 0 27 0;
#X connect 17 0 42 0;
#X connect 18 0 74 0;
#X connect 19 0 20 0;
#X connect 20 0 11 0;
#X connect 21 0 11 0;
#X connect 22 0 6 1;
#X connect 22 1 13 0;
#X connect 22 2 81 1;
#X connect 22 3 21 0;
#X connect 23 1 8 0;
#X connect 23 2 19 0;
#X connect 25 0 72 0;
#X connect 27 1 30 0;
#X connect 29 0 32 0;
#X connect 30 0 29 0;
#X connect 30 1 32 1;
#X connect 32 0 31 0;
#X connect 40 0 41 0;
#X connect 41 0 68 0;
#X connect 42 0 12 0;
#X connect 42 2 25 0;
#X connect 42 3 44 0;
#X connect 43 0 30 0;
#X connect 44 0 43 0;
#X connect 45 0 46 0;
#X connect 46 0 47 0;
#X connect 47 0 56 0;
#X connect 48 0 65 0;
#X connect 49 0 48 0;
#X connect 50 0 57 0;
#X connect 52 0 50 1;
#X connect 53 0 52 0;
#X connect 54 0 55 0;
#X connect 55 0 75 0;
#X connect 56 0 72 0;
#X connect 58 0 71 0;
#X connect 58 1 70 0;
#X connect 59 0 71 0;
#X connect 60 1 16 0;
#X connect 60 2 2 0;
#X connect 60 3 21 0;
#X connect 60 4 61 0;
#X connect 61 0 65 0;
#X connect 62 0 18 0;
#X connect 63 0 64 0;
#X connect 66 0 19 1;
#X connect 66 0 58 0;
#X connect 69 0 60 0;
#X connect 70 0 65 0;
#X connect 71 0 65 0;
#X connect 73 0 80 0;
#X connect 76 0 53 0;
#X connect 77 0 6 0;
#X connect 77 0 79 0;
#X connect 78 0 13 0;
#X connect 80 0 22 0;
#X connect 81 0 5 0;
#X coords 0 -1 1 1 200 100 1 100 100;
