#N canvas 641 179 475 347 10;
#X obj 188 115 r playertog-\$1;
#X obj 141 77 inlet;
#X obj 144 153 spigot 0;
#X obj 143 207 s peepums-play;
#X msg 278 249 color 13 12 12;
#X obj 291 285 s playertog-\$1-rcv;
#X msg 297 222 color 14 12 12;
#X obj 285 140 t b b b;
#X obj 251 197 del 100;
#X msg 293 171 stop;
#X connect 0 0 2 1;
#X connect 1 0 2 0;
#X connect 1 0 7 0;
#X connect 2 0 3 0;
#X connect 4 0 5 0;
#X connect 6 0 5 0;
#X connect 7 0 8 0;
#X connect 7 1 9 0;
#X connect 7 2 4 0;
#X connect 8 0 6 0;
#X connect 9 0 8 0;
