#N canvas 1 78 450 300 10;
#X obj 97 41 inlet;
#X obj 138 91 f \$1;
#X obj 182 91 f \$2;
#X obj 223 90 f \$3;
#X obj 267 90 f \$4;
#X obj 242 134 -;
#X obj 165 136 -;
#X obj 114 134 -;
#X obj 135 172 /;
#X obj 138 204 *;
#X obj 142 230 +;
#X obj 142 257 outlet;
#X obj 176 14 loadbang;
#X obj 141 113 t f f;
#X obj 178 39 t b b b b;
#X connect 0 0 7 0;
#X connect 1 0 13 0;
#X connect 2 0 6 0;
#X connect 3 0 5 1;
#X connect 3 0 10 1;
#X connect 4 0 5 0;
#X connect 5 0 9 1;
#X connect 6 0 8 1;
#X connect 7 0 8 0;
#X connect 8 0 9 0;
#X connect 9 0 10 0;
#X connect 10 0 11 0;
#X connect 12 0 14 0;
#X connect 13 0 7 1;
#X connect 13 1 6 1;
#X connect 14 0 2 0;
#X connect 14 1 1 0;
#X connect 14 2 4 0;
#X connect 14 3 3 0;
