#N canvas 125 121 835 534 10;
#X declare -path ../SyncJams/pure-data;
#N canvas 299 192 450 300 echo 0;
#X obj 59 13 inlet~;
#X obj 47 207 outlet~;
#X obj 274 20 inlet;
#X obj 357 29 inlet;
#X obj 269 93 pow;
#X obj 275 42 t b f;
#X msg 275 65 2;
#X obj 270 115 * 125;
#X obj 83 73 delwrite~ \$0-echo 4000;
#X obj 356 73 sig~;
#X obj 84 51 *~;
#X obj 148 134 line~;
#X msg 148 111 \$1 \$1;
#X obj 138 156 vd~ \$0-echo 500;
#X connect 0 0 1 0;
#X connect 0 0 10 0;
#X connect 2 0 5 0;
#X connect 3 0 9 0;
#X connect 4 0 7 0;
#X connect 5 0 6 0;
#X connect 5 1 4 1;
#X connect 6 0 4 0;
#X connect 7 0 12 0;
#X connect 9 0 10 1;
#X connect 10 0 8 0;
#X connect 11 0 13 0;
#X connect 12 0 11 0;
#X connect 13 0 1 0;
#X connect 13 0 10 0;
#X restore 390 281 pd echo;
#N canvas 11 143 450 300 samples 0;
#X obj 61 261 soundfiler;
#X obj 61 171 until;
#X obj 61 201 f;
#X obj 91 201 + 1;
#X obj 61 104 t b b;
#X msg 91 136 0;
#X obj 61 71 bng 15 250 50 0 empty empty empty 17 7 0 10 -262144 -1
-1;
#X msg 61 136 47;
#X obj 61 45 loadbang;
#N canvas 2 101 544 300 beatbox_tables 0;
#X obj 32 45 table beat1;
#X obj 32 67 table beat2;
#X obj 32 89 table beat3;
#X obj 32 111 table beat4;
#X obj 32 133 table beat5;
#X obj 32 155 table beat6;
#X obj 32 178 table beat7;
#X obj 32 200 table beat8;
#X obj 32 223 table beat9;
#X obj 32 245 table beat10;
#X obj 40 21 table beat0;
#X obj 127 23 table beat11;
#X obj 128 45 table beat12;
#X obj 127 67 table beat13;
#X obj 127 89 table beat14;
#X obj 127 111 table beat15;
#X obj 127 133 table beat16;
#X obj 127 156 table beat17;
#X obj 127 178 table beat18;
#X obj 128 202 table beat19;
#X obj 127 223 table beat20;
#X obj 223 25 table beat21;
#X obj 223 47 table beat22;
#X obj 223 69 table beat23;
#X obj 223 91 table beat24;
#X obj 223 113 table beat25;
#X obj 223 135 table beat26;
#X obj 223 158 table beat27;
#X obj 223 180 table beat28;
#X obj 223 203 table beat29;
#X obj 223 225 table beat30;
#X obj 322 24 table beat31;
#X obj 323 46 table beat32;
#X obj 322 68 table beat33;
#X obj 322 90 table beat34;
#X obj 322 112 table beat35;
#X obj 322 134 table beat36;
#X obj 322 157 table beat37;
#X obj 322 179 table beat38;
#X obj 323 203 table beat39;
#X obj 322 224 table beat40;
#X obj 415 25 table beat41;
#X obj 416 47 table beat42;
#X obj 415 69 table beat43;
#X obj 415 91 table beat44;
#X obj 415 113 table beat45;
#X obj 415 135 table beat46;
#X restore 242 94 pd beatbox_tables;
#N canvas 0 91 544 300 kitchen_tables 0;
#X obj 32 45 table kitch1;
#X obj 32 67 table kitch2;
#X obj 32 89 table kitch3;
#X obj 32 111 table kitch4;
#X obj 32 133 table kitch5;
#X obj 32 155 table kitch6;
#X obj 32 178 table kitch7;
#X obj 32 200 table kitch8;
#X obj 32 223 table kitch9;
#X obj 32 245 table kitch10;
#X obj 40 21 table kitch0;
#X obj 127 23 table kitch11;
#X obj 128 45 table kitch12;
#X obj 127 67 table kitch13;
#X obj 127 89 table kitch14;
#X obj 127 111 table kitch15;
#X obj 127 133 table kitch16;
#X obj 127 156 table kitch17;
#X obj 127 178 table kitch18;
#X obj 128 202 table kitch19;
#X obj 127 223 table kitch20;
#X obj 223 25 table kitch21;
#X obj 223 47 table kitch22;
#X obj 223 69 table kitch23;
#X obj 223 91 table kitch24;
#X obj 223 113 table kitch25;
#X obj 223 135 table kitch26;
#X obj 223 158 table kitch27;
#X obj 223 180 table kitch28;
#X obj 223 203 table kitch29;
#X obj 223 225 table kitch30;
#X obj 322 24 table kitch31;
#X obj 323 46 table kitch32;
#X obj 322 68 table kitch33;
#X obj 322 90 table kitch34;
#X obj 322 112 table kitch35;
#X obj 322 134 table kitch36;
#X obj 322 157 table kitch37;
#X obj 322 179 table kitch38;
#X obj 323 203 table kitch39;
#X obj 322 224 table kitch40;
#X obj 415 25 table kitch41;
#X obj 416 47 table kitch42;
#X obj 415 69 table kitch43;
#X obj 415 91 table kitch44;
#X obj 415 113 table kitch45;
#X obj 415 135 table kitch46;
#X restore 242 114 pd kitchen_tables;
#N canvas 479 50 544 300 berklee_tables 0;
#X obj 40 21 table berk0;
#X obj 32 45 table berk1;
#X obj 32 67 table berk2;
#X obj 32 89 table berk3;
#X obj 32 111 table berk4;
#X obj 32 133 table berk5;
#X obj 32 155 table berk6;
#X obj 32 178 table berk7;
#X obj 32 200 table berk8;
#X obj 32 223 table berk9;
#X obj 32 245 table berk10;
#X obj 129 43 table berk11;
#X obj 129 65 table berk12;
#X obj 129 87 table berk13;
#X obj 129 109 table berk14;
#X obj 129 131 table berk15;
#X obj 129 153 table berk16;
#X obj 129 176 table berk17;
#X obj 129 198 table berk18;
#X obj 129 221 table berk19;
#X obj 129 243 table berk20;
#X obj 217 66 table berk22;
#X obj 217 44 table berk21;
#X obj 217 88 table berk23;
#X obj 217 110 table berk24;
#X obj 217 132 table berk25;
#X obj 217 154 table berk26;
#X obj 217 177 table berk27;
#X obj 217 199 table berk28;
#X obj 217 222 table berk29;
#X obj 217 244 table berk30;
#X obj 307 42 table berk31;
#X obj 307 64 table berk32;
#X obj 307 86 table berk33;
#X obj 307 108 table berk34;
#X obj 307 130 table berk35;
#X obj 307 152 table berk36;
#X obj 307 175 table berk37;
#X obj 307 197 table berk38;
#X obj 307 220 table berk39;
#X obj 307 242 table berk40;
#X obj 392 43 table berk41;
#X obj 392 65 table berk42;
#X obj 392 87 table berk43;
#X obj 392 109 table berk44;
#X obj 392 131 table berk45;
#X obj 392 153 table berk46;
#X restore 243 136 pd berklee_tables;
#X msg 61 233 read -resize bb/\$1.wav beat\$1 \, read -resize kk/\$1.wav
kitch\$1 \, read -resize berk/\$1.wav berk\$1, f 62;
#X connect 1 0 2 0;
#X connect 2 0 3 0;
#X connect 2 0 12 0;
#X connect 3 0 2 1;
#X connect 4 0 7 0;
#X connect 4 1 5 0;
#X connect 5 0 2 1;
#X connect 6 0 4 0;
#X connect 7 0 1 0;
#X connect 8 0 6 0;
#X connect 12 0 0 0;
#X restore 732 340 pd samples;
#N canvas 403 154 771 448 harmonies 0;
#X msg 355 302 \; harmony 0 44 56 60 63 65 68 70 72;
#X msg 356 265 \; harmony 0 48 55 60 62 64 67 69 72;
#X msg 358 229 \; harmony 0 48 55 60 63 65 67 70 72;
#X obj 357 197 loadbang;
#X obj 715 121 table harmony 8;
#X obj 234 147 inlet;
#X obj 236 183 sel 0 1 2;
#X msg 355 338 \; harmony 0 41 48 53 56 58 59 60 63;
#X connect 3 0 2 0;
#X connect 5 0 6 0;
#X connect 6 0 2 0;
#X connect 6 1 1 0;
#X connect 6 2 0 0;
#X connect 6 3 7 0;
#X restore 92 420 pd harmonies;
#N canvas 109 231 573 394 reverb 0;
#X obj 91 30 inlet~;
#X obj 91 251 outlet~;
#X obj 159 253 outlet~;
#X obj 212 31 inlet;
#X obj 86 117 e_platereverb~;
#N canvas 1 62 450 300 xfade 0;
#X obj 103 102 inlet~;
#X obj 169 102 inlet~;
#X obj 100 258 outlet~;
#X obj 388 96 inlet;
#X obj 364 151 * 1.5708;
#X obj 293 191 expr cos($f1) \; sin($f1);
#X obj 225 143 line~;
#X msg 234 118 \$1 50;
#X obj 170 188 *~;
#X obj 101 187 *~;
#X obj 124 156 line~;
#X msg 133 131 \$1 50;
#X connect 0 0 9 0;
#X connect 1 0 8 0;
#X connect 3 0 4 0;
#X connect 4 0 5 0;
#X connect 5 0 11 0;
#X connect 5 1 7 0;
#X connect 6 0 8 1;
#X connect 7 0 6 0;
#X connect 8 0 2 0;
#X connect 9 0 2 0;
#X connect 10 0 9 1;
#X connect 11 0 10 0;
#X restore 89 216 pd xfade;
#N canvas 1 68 450 300 xfade 0;
#X obj 103 102 inlet~;
#X obj 169 102 inlet~;
#X obj 100 258 outlet~;
#X obj 388 96 inlet;
#X obj 364 151 * 1.5708;
#X obj 293 191 expr cos($f1) \; sin($f1);
#X obj 225 143 line~;
#X msg 234 118 \$1 50;
#X obj 170 188 *~;
#X obj 101 187 *~;
#X obj 124 156 line~;
#X msg 133 131 \$1 50;
#X connect 0 0 9 0;
#X connect 1 0 8 0;
#X connect 3 0 4 0;
#X connect 4 0 5 0;
#X connect 5 0 11 0;
#X connect 5 1 7 0;
#X connect 6 0 8 1;
#X connect 7 0 6 0;
#X connect 8 0 2 0;
#X connect 9 0 2 0;
#X connect 10 0 9 1;
#X connect 11 0 10 0;
#X restore 156 215 pd xfade;
#X obj 288 55 loadbang;
#X msg 289 80 0;
#X obj 208 57 t f f;
#X connect 0 0 4 0;
#X connect 0 0 4 1;
#X connect 0 0 6 0;
#X connect 0 0 5 0;
#X connect 3 0 9 0;
#X connect 4 0 5 1;
#X connect 4 1 6 1;
#X connect 5 0 1 0;
#X connect 6 0 2 0;
#X connect 7 0 8 0;
#X connect 8 0 9 0;
#X connect 9 0 5 2;
#X connect 9 1 6 2;
#X restore 280 380 pd reverb;
#N canvas 134 147 450 300 filter 0;
#X obj 162 75 inlet~;
#X obj 152 206 outlet~;
#X obj 154 176 e_reslop~;
#X obj 245 77 inlet;
#X msg 308 127 q 2;
#X msg 248 104 freq \$1;
#X connect 0 0 2 0;
#X connect 2 0 1 0;
#X connect 3 0 5 0;
#X connect 4 0 2 1;
#X connect 5 0 2 1;
#X restore 387 374 pd filter;
#X obj 83 10 loadbang;
#N canvas 336 309 384 250 metronome 0;
#X obj 90 54 inlet;
#X obj 40 218 s \$0-metro;
#X obj 128 54 inlet;
#X obj 40 195 delay 0;
#X obj 79 172 r k-finetune;
#X obj 40 149 mod 1;
#X obj 18 72 route tick;
#X obj 40 172 sel 0;
#X obj 40 101 spigot;
#X obj 128 75 t b f;
#X obj 128 117 -;
#X msg 128 96 4;
#X obj 18 17 syncjams \$0/CLIME \, bpm 480 \, namespace CLIME;
#X obj 230 108 declare -path ../SyncJams/pure-data;
#X connect 0 0 8 1;
#X connect 2 0 9 0;
#X connect 3 0 1 0;
#X connect 4 0 3 1;
#X connect 5 0 7 0;
#X connect 6 0 8 0;
#X connect 7 0 3 0;
#X connect 8 0 5 0;
#X connect 9 0 11 0;
#X connect 9 1 10 1;
#X connect 10 0 5 1;
#X connect 11 0 10 0;
#X connect 12 0 6 0;
#X restore 583 94 pd metronome;
#N canvas 354 250 633 409 play-samples 0;
#X obj 312 256 outlet~;
#X obj 275 -18 inlet;
#X obj 416 -27 inlet;
#X obj 474 -34 loadbang;
#X msg 473 -10 0;
#X obj 297 229 catch~ player;
#X obj 443 27 s sampnum;
#X msg 244 15 \; player-\$1 \$2;
#X obj 79 89 sample-player 0;
#X obj 79 112 sample-player 1;
#X obj 79 133 sample-player 2;
#X obj 79 153 sample-player 3;
#X obj 194 91 sample-player 4;
#X obj 194 114 sample-player 5;
#X obj 194 135 sample-player 6;
#X obj 194 155 sample-player 7;
#X obj 307 90 sample-player 8;
#X obj 307 113 sample-player 9;
#X obj 307 134 sample-player 10;
#X obj 307 154 sample-player 11;
#X obj 422 92 sample-player 12;
#X obj 422 115 sample-player 13;
#X obj 422 136 sample-player 14;
#X obj 422 156 sample-player 15;
#X connect 1 0 7 0;
#X connect 2 0 6 0;
#X connect 3 0 4 0;
#X connect 4 0 6 0;
#X connect 5 0 0 0;
#X restore 35 254 pd play-samples;
#N canvas 204 190 450 300 sound-density 0;
#X obj 85 124 t b f;
#X obj 85 31 r \$0-metro;
#X obj 85 172 pack;
#X obj 85 202 outlet;
#X obj 264 22 inlet;
#N canvas 411 167 450 300 counter 0;
#X obj 143 95 int;
#X obj 173 96 + 1;
#X obj 141 129 outlet;
#X obj 143 59 inlet;
#X obj 204 96 % 16;
#X connect 0 0 1 0;
#X connect 0 0 2 0;
#X connect 1 0 4 0;
#X connect 3 0 0 0;
#X connect 4 0 0 1;
#X restore 223 155 pd counter;
#X obj 85 54 t b b;
#X floatatom 286 125 5 0 0 0 - - -, f 5;
#X obj 85 103 spigot 1;
#X obj 85 78 random 47;
#X obj 264 48 * 1000;
#X obj 230 124 < 1000;
#X obj 229 95 random 1;
#X connect 0 0 5 0;
#X connect 0 1 2 1;
#X connect 1 0 6 0;
#X connect 2 0 3 0;
#X connect 4 0 10 0;
#X connect 5 0 2 0;
#X connect 6 0 9 0;
#X connect 6 1 12 0;
#X connect 8 0 0 0;
#X connect 9 0 8 0;
#X connect 10 0 12 1;
#X connect 11 0 8 1;
#X connect 12 0 7 0;
#X connect 12 0 11 0;
#X restore 35 227 pd sound-density;
#N canvas 421 177 450 300 apply-harmony 0;
#X floatatom 178 148 5 0 0 0 - - -, f 5;
#X obj 178 168 mtof;
#X obj 178 105 tabread harmony;
#X obj 178 126 change;
#X obj 178 83 random 8;
#X obj 178 62 r \$0-metro;
#X obj 178 195 outlet;
#X connect 0 0 1 0;
#X connect 1 0 6 0;
#X connect 2 0 3 0;
#X connect 3 0 0 0;
#X connect 4 0 2 0;
#X connect 5 0 4 0;
#X restore 273 56 pd apply-harmony;
#X obj 637 409 loadbang;
#X msg 638 442 \; pd dsp 1;
#N canvas 385 164 450 300 volume 0;
#X obj 137 83 *~;
#X obj 177 83 *~;
#X obj 131 42 inlet~;
#X obj 175 42 inlet~;
#X obj 263 111 line~;
#X msg 263 88 \$1 30;
#X obj 263 42 clip 0 1;
#X obj 263 64 change;
#X obj 263 15 inlet;
#X obj 168 127 outlet~;
#X obj 106 128 outlet~;
#X connect 0 0 10 0;
#X connect 1 0 9 0;
#X connect 2 0 0 0;
#X connect 3 0 1 0;
#X connect 4 0 1 1;
#X connect 4 0 0 1;
#X connect 5 0 4 0;
#X connect 6 0 7 0;
#X connect 7 0 5 0;
#X connect 8 0 6 0;
#X restore 297 461 pd volume;
#X obj 314 492 dac~;
#X obj 561 61 r k-metro;
#X obj 661 14 r k-tempo;
#X obj 348 438 r k-mastervol;
#X obj 36 160 r k-density;
#X obj 175 198 r k-soundbank;
#X obj 325 19 r k-ringmod;
#X obj 410 210 r k-echotime;
#X obj 500 237 r k-echofeedback;
#X obj 455 330 r k-filter;
#X obj 303 266 r k-revmix;
#X obj 115 378 r k-harmony;
#N canvas 221 216 450 300 countdown 0;
#X obj 82 61 metro 1000;
#X obj 84 93 int;
#X obj 81 36 loadbang;
#X obj 165 95 - 1;
#X obj 117 93 max 0;
#X obj 163 35 tgl 15 0 empty empty empty 17 7 0 10 -262144 -1 -1 0
1;
#X obj 159 137 s countdown;
#X obj 254 7 r new-countdown;
#X msg 262 102 0;
#X obj 112 180 <= 0;
#X obj 113 209 sel 0 1;
#X msg 88 245 \; k-broadcast-gui color 13;
#X msg 259 242 \; k-broadcast-gui color 16;
#X obj 255 31 random 120;
#X obj 256 55 + 180;
#X connect 0 0 1 0;
#X connect 1 0 4 0;
#X connect 2 0 0 0;
#X connect 3 0 1 1;
#X connect 4 0 3 0;
#X connect 4 0 6 0;
#X connect 4 0 9 0;
#X connect 5 0 0 0;
#X connect 7 0 13 0;
#X connect 8 0 1 1;
#X connect 9 0 10 0;
#X connect 10 0 11 0;
#X connect 10 1 12 0;
#X connect 13 0 14 0;
#X connect 14 0 1 1;
#X restore 659 198 pd countdown;
#X obj 248 125 clip~ -1 1;
#N canvas 30 234 539 320 network-connection 0;
#X obj 25 172 s k-tempo-gui;
#X obj 39 199 s k-soundbank-gui;
#X obj 59 227 s k-harmony-gui;
#X obj 78 255 s k-echotime-gui;
#X obj 152 177 s k-density-gui;
#X obj 167 202 s k-ringmod-gui;
#X obj 193 226 s k-echofeedback-gui;
#X obj 219 247 s k-filter-gui;
#X obj 303 199 s k-revmix-gui;
#X obj 25 122 unpack f f f f f f f f f f;
#X obj 221 54 netsend;
#X obj 221 79 tgl 15 0 empty empty empty 17 7 0 10 -262144 -1 -1 0
1;
#X obj 222 25 inlet;
#X obj 50 98 route /snapper;
#X msg 301 79 disconnect;
#X obj 247 132 s connected;
#X obj 262 173 s k-bitcrush-gui;
#X msg 14 279 \; lockout-countdown 15;
#X msg 283 31 disconnect \, connect \$1 13033;
#X obj 283 -15 spigot 1;
#X obj 278 106 == 0;
#X obj 283 -38 inlet;
#X obj 283 8 symbol;
#X connect 9 0 0 0;
#X connect 9 0 17 0;
#X connect 9 1 1 0;
#X connect 9 2 2 0;
#X connect 9 3 3 0;
#X connect 9 4 4 0;
#X connect 9 5 5 0;
#X connect 9 6 6 0;
#X connect 9 7 7 0;
#X connect 9 8 16 0;
#X connect 9 9 8 0;
#X connect 10 0 11 0;
#X connect 10 1 13 0;
#X connect 11 0 15 0;
#X connect 11 0 20 0;
#X connect 12 0 10 0;
#X connect 13 0 9 0;
#X connect 14 0 10 0;
#X connect 18 0 10 0;
#X connect 19 0 22 0;
#X connect 20 0 19 1;
#X connect 21 0 19 0;
#X connect 22 0 18 0;
#X restore 658 242 pd network-connection;
#N canvas 418 200 743 300 broadcast-message 0;
#N canvas 90 350 450 300 controls-to-send 0;
#X obj 170 191 f;
#X obj 197 191 f;
#X obj 224 191 f;
#X obj 251 191 f;
#X obj 278 191 f;
#X obj 305 191 f;
#X obj 251 144 r k-filter;
#X obj 36 74 r k-tempo;
#X obj 50 101 r k-soundbank;
#X obj 70 129 r k-harmony;
#X obj 89 157 r k-echotime;
#X obj 184 74 r k-density;
#X obj 199 99 r k-ringmod;
#X obj 225 123 r k-echofeedback;
#X obj 332 103 r k-revmix;
#X obj 98 242 pack f f f f f f f f f f;
#X obj 35 191 f;
#X obj 62 191 f;
#X obj 89 191 f;
#X obj 116 191 f;
#X obj 99 271 outlet;
#X obj 27 15 inlet;
#X obj 28 47 t b b b b b b b b b b;
#X floatatom 345 176 5 0 0 0 - - -, f 5;
#X obj 291 77 r k-bitcrush;
#X connect 0 0 15 4;
#X connect 1 0 15 5;
#X connect 2 0 15 6;
#X connect 3 0 15 7;
#X connect 4 0 15 8;
#X connect 5 0 15 9;
#X connect 6 0 3 1;
#X connect 7 0 16 1;
#X connect 8 0 17 1;
#X connect 9 0 18 1;
#X connect 10 0 19 1;
#X connect 11 0 0 1;
#X connect 12 0 1 1;
#X connect 13 0 2 1;
#X connect 14 0 5 1;
#X connect 14 0 23 0;
#X connect 15 0 20 0;
#X connect 16 0 15 0;
#X connect 17 0 15 1;
#X connect 18 0 15 2;
#X connect 19 0 15 3;
#X connect 21 0 22 0;
#X connect 22 0 16 0;
#X connect 22 1 17 0;
#X connect 22 2 18 0;
#X connect 22 3 19 0;
#X connect 22 4 0 0;
#X connect 22 5 1 0;
#X connect 22 6 2 0;
#X connect 22 7 3 0;
#X connect 22 8 4 0;
#X connect 22 9 5 0;
#X connect 24 0 4 1;
#X restore 367 154 pd controls-to-send;
#X obj 350 100 spigot;
#X obj 416 79 <= 0;
#X obj 413 55 r countdown;
#X obj 351 124 t b b;
#X obj 252 148 s new-countdown;
#X obj 352 34 r k-broadcast;
#X msg 254 178 send /snapper \$1 \$2 \$3 \$4 \$5 \$6 \$7 \$8 \$9 \$10
;
#X obj 62 249 outlet;
#X obj 285 69 bng 15 250 50 0 empty empty empty 17 7 0 10 -262144 -1
-1;
#X connect 0 0 7 0;
#X connect 1 0 4 0;
#X connect 2 0 1 1;
#X connect 3 0 2 0;
#X connect 4 0 5 0;
#X connect 4 1 0 0;
#X connect 6 0 1 0;
#X connect 7 0 8 0;
#X connect 9 0 4 0;
#X restore 658 220 pd broadcast-message;
#N canvas 51 156 450 300 ringmod 0;
#X obj 74 130 delwrite~ \$0-ringmod 1000;
#X obj 94 177 delread~ \$0-ringmod;
#X obj 189 96 /;
#X obj 194 48 t b f, f 7;
#X msg 194 72 1000;
#X obj 347 124 sqrt;
#X obj 71 105 inlet~;
#X obj 126 258 outlet~;
#X obj 348 103 inlet;
#X obj 194 23 inlet;
#X obj 287 149 *~;
#X obj 280 211 lop~ 8000;
#X connect 1 0 7 0;
#X connect 1 0 11 0;
#X connect 2 0 1 0;
#X connect 3 0 4 0;
#X connect 3 1 2 1;
#X connect 4 0 2 0;
#X connect 5 0 10 1;
#X connect 6 0 0 0;
#X connect 8 0 5 0;
#X connect 9 0 3 0;
#X connect 10 0 0 0;
#X connect 11 0 10 0;
#X restore 248 84 pd ringmod;
#N canvas 1 58 450 300 pvu 0;
#X obj 107 29 inlet~;
#X obj 107 101 s pvu-L;
#X obj 107 53 env~ 1024;
#X obj 107 77 - 100;
#X obj 179 29 inlet~;
#X obj 179 53 env~ 1024;
#X obj 179 77 - 100;
#X obj 179 101 s pvu-R;
#X connect 0 0 2 0;
#X connect 2 0 3 0;
#X connect 3 0 1 0;
#X connect 4 0 5 0;
#X connect 5 0 6 0;
#X connect 6 0 7 0;
#X restore 240 493 pd pvu;
#N canvas 374 319 713 349 route-midi 0;
#X obj 18 16 nanokontrol;
#X obj 40 41 r /nanoKontrol/slider/1;
#X obj 39 90 s k-density-gui;
#X obj 217 38 r /nanoKontrol/slider/2;
#X obj 216 90 s k-ringmod-gui;
#X obj 53 212 r /nanoKontrol/r/1;
#X obj 49 240 sel 127;
#X obj 50 263 s k-densityreset-gui;
#X obj 216 143 r /nanoKontrol/knob/1;
#X obj 216 211 s k-tempo-gui;
#X obj 217 190 int;
#X obj 218 165 j_map 0 127 0 4;
#X obj 218 64 j_map 0 127 0 0.95;
#X obj 368 191 int;
#X obj 367 144 r /nanoKontrol/knob/2;
#X obj 369 166 j_map 0 127 0 3;
#X obj 367 212 s k-soundbank-gui;
#X obj 506 191 int;
#X obj 505 144 r /nanoKontrol/knob/3;
#X obj 507 166 j_map 0 127 0 4;
#X obj 505 212 s k-harmony-gui;
#X obj 376 35 r /nanoKontrol/slider/3;
#X obj 377 82 int;
#X obj 375 103 s k-echotime-gui;
#X obj 377 61 j_map 0 127 6 0;
#X obj 526 35 r /nanoKontrol/slider/4;
#X obj 527 61 j_map 0 127 0 0.95;
#X obj 525 103 s k-echofeedback-gui;
#X obj 685 34 r /nanoKontrol/slider/5;
#X obj 684 102 s k-filter-gui;
#X obj 671 141 r /nanoKontrol/slider/8;
#X obj 670 209 s k-mastervol-gui;
#X obj 351 247 r /nanoKontrol/play;
#X obj 350 272 sel 127;
#X msg 349 295 \; k-metro-gui 1;
#X obj 486 266 sel 127;
#X obj 488 241 r /nanoKontrol/stop;
#X msg 485 289 \; k-metro-gui 0;
#X obj 617 268 sel 127;
#X obj 619 243 r /nanoKontrol/cycle;
#X obj 618 294 s k-broadcast-gui;
#X obj 672 167 j_map 0 127 0 0.9;
#X obj 686 60 j_map 0 127 800 8000;
#X obj 847 104 s k-revmix-gui;
#X obj 849 62 j_map 0 127 0 1;
#X obj 848 36 r /nanoKontrol/slider/7;
#X obj 848 187 r /nanoKontrol/slider/6;
#X obj 847 255 s k-bitcrush-gui;
#X obj 39 69 j_map 0 127 10 1;
#X obj 849 213 j_map 0 127 16 1;
#X connect 1 0 48 0;
#X connect 3 0 12 0;
#X connect 5 0 6 0;
#X connect 6 0 7 0;
#X connect 8 0 11 0;
#X connect 10 0 9 0;
#X connect 11 0 10 0;
#X connect 12 0 4 0;
#X connect 13 0 16 0;
#X connect 14 0 15 0;
#X connect 15 0 13 0;
#X connect 17 0 20 0;
#X connect 18 0 19 0;
#X connect 19 0 17 0;
#X connect 21 0 24 0;
#X connect 22 0 23 0;
#X connect 24 0 22 0;
#X connect 25 0 26 0;
#X connect 26 0 27 0;
#X connect 28 0 42 0;
#X connect 30 0 41 0;
#X connect 32 0 33 0;
#X connect 33 0 34 0;
#X connect 35 0 37 0;
#X connect 36 0 35 0;
#X connect 38 0 40 0;
#X connect 39 0 38 0;
#X connect 41 0 31 0;
#X connect 42 0 29 0;
#X connect 44 0 43 0;
#X connect 45 0 44 0;
#X connect 46 0 49 0;
#X connect 48 0 2 0;
#X connect 49 0 47 0;
#X restore 576 373 pd route-midi;
#N canvas 719 180 450 300 bitcrush 0;
#X obj 153 51 inlet~;
#X obj 231 47 inlet;
#X obj 145 148 outlet~;
#X msg 300 87 16;
#X obj 304 58 loadbang;
#X obj 149 118 expr~ int($v1*$f2)/$f2;
#X connect 0 0 5 0;
#X connect 1 0 5 1;
#X connect 3 0 5 1;
#X connect 4 0 3 0;
#X connect 5 0 2 0;
#X restore 340 174 pd bitcrush;
#X obj 409 119 r k-bitcrush;
#N canvas 1 59 450 300 get-server-ip 0;
#X obj 147 83 netreceive -u 13034;
#X obj 146 116 outlet;
#X connect 0 0 1 0;
#X restore 709 109 pd get-server-ip;
#X obj 653 41 lockout;
#X obj 36 183 lockout;
#X obj 169 221 lockout;
#X obj 101 399 lockout;
#X obj 392 49 lockout;
#X obj 408 141 lockout;
#X obj 312 322 lockout;
#X obj 414 243 lockout;
#X obj 472 260 lockout;
#X obj 442 353 lockout;
#X msg 82 33 \; k-density-gui 1 \; k-tempo-gui 2 \; k-filter-gui 8000
\; k-bitcrush-gui 16 \; k-revmix-gui 0;
#X connect 0 0 4 0;
#X connect 3 0 12 0;
#X connect 3 1 12 1;
#X connect 4 0 3 0;
#X connect 5 0 45 0;
#X connect 7 0 29 0;
#X connect 8 0 7 0;
#X connect 9 0 29 1;
#X connect 10 0 11 0;
#X connect 12 0 13 0;
#X connect 12 0 30 0;
#X connect 12 1 13 1;
#X connect 12 1 30 1;
#X connect 14 0 6 0;
#X connect 15 0 35 0;
#X connect 16 0 12 2;
#X connect 17 0 36 0;
#X connect 18 0 37 0;
#X connect 19 0 39 0;
#X connect 20 0 42 0;
#X connect 21 0 43 0;
#X connect 22 0 44 0;
#X connect 23 0 41 0;
#X connect 24 0 38 0;
#X connect 26 0 32 0;
#X connect 28 0 27 0;
#X connect 29 0 26 0;
#X connect 32 0 0 0;
#X connect 33 0 40 0;
#X connect 34 0 27 1;
#X connect 35 0 6 1;
#X connect 36 0 8 0;
#X connect 37 0 7 1;
#X connect 38 0 2 0;
#X connect 39 0 29 2;
#X connect 40 0 32 1;
#X connect 41 0 3 1;
#X connect 42 0 0 1;
#X connect 43 0 0 2;
#X connect 44 0 4 1;
