#N canvas 1 61 450 300 10;
#X obj 69 88 inlet;
#X obj 78 144 outlet;
#X obj 72 115 spigot 1;
#X msg 125 63 0;
#X msg 125 87 1;
#X obj 311 43 r lockout-countdown;
#X obj 258 102 int;
#X obj 285 105 - 1;
#X obj 317 106 pipe 1000;
#X obj 381 107 sel 0;
#X obj 310 65 t f b;
#X connect 0 0 2 0;
#X connect 2 0 1 0;
#X connect 3 0 2 1;
#X connect 4 0 2 1;
#X connect 5 0 10 0;
#X connect 6 0 7 0;
#X connect 7 0 8 0;
#X connect 8 0 9 0;
#X connect 9 0 4 0;
#X connect 9 1 6 0;
#X connect 10 0 6 0;
#X connect 10 1 3 0;
