#N canvas 810 68 495 385 10;
#X obj 75 26 ctlin;
#X obj 73 53 swap;
#X obj 69 105 moses 8;
#X obj 108 128 moses 24;
#X obj 94 77 s \$0-ctl-val;
#N canvas 1 63 450 300 sliders 0;
#X obj 110 28 inlet;
#X obj 110 102 pack;
#X obj 110 65 + 1;
#X obj 151 79 r \$0-ctl-val;
#X msg 110 139 \; /nanoKontrol/slider/\$1 \$2;
#X connect 0 0 2 0;
#X connect 1 0 4 0;
#X connect 2 0 1 0;
#X connect 3 0 1 1;
#X restore 35 128 pd sliders;
#N canvas 1 68 450 300 knobs 0;
#X obj 110 28 inlet;
#X obj 110 102 pack;
#X obj 151 79 r \$0-ctl-val;
#X obj 110 65 - 15;
#X msg 110 139 \; /nanoKontrol/knob/\$1 \$2;
#X connect 0 0 3 0;
#X connect 1 0 4 0;
#X connect 2 0 1 1;
#X connect 3 0 1 0;
#X restore 90 153 pd knobs;
#X obj 153 154 moses 40;
#N canvas 1 73 450 300 s_button 0;
#X obj 110 28 inlet;
#X obj 110 102 pack;
#X obj 151 79 r \$0-ctl-val;
#X obj 110 65 - 31;
#X msg 110 139 \; /nanoKontrol/s/\$1 \$2;
#X connect 0 0 3 0;
#X connect 1 0 4 0;
#X connect 2 0 1 1;
#X connect 3 0 1 0;
#X restore 136 180 pd s_button;
#N canvas 1 98 450 300 transport 0;
#X obj 110 28 inlet;
#X obj 110 102 pack;
#X obj 151 79 r \$0-ctl-val;
#X obj 110 144 route 43 44 42 41 45 46;
#X msg 265 91 \; /nanoKontrol/cycle \$1;
#X msg 249 140 \; /nanoKontrol/record \$1;
#X msg 171 180 \; /nanoKontrol/play \$1;
#X msg 151 223 \; /nanoKontrol/stop \$1;
#X msg 134 262 \; /nanoKontrol/ffwd \$1;
#X msg 114 305 \; /nanoKontrol/rewind \$1;
#X connect 0 0 1 0;
#X connect 1 0 3 0;
#X connect 2 0 1 1;
#X connect 3 0 9 0;
#X connect 3 1 8 0;
#X connect 3 2 7 0;
#X connect 3 3 6 0;
#X connect 3 4 5 0;
#X connect 3 5 4 0;
#X restore 203 207 pd transport;
#N canvas 1 78 450 300 m_button 0;
#X obj 110 28 inlet;
#X obj 110 102 pack;
#X obj 151 79 r \$0-ctl-val;
#X obj 110 65 - 47;
#X msg 110 139 \; /nanoKontrol/m/\$1 \$2;
#X connect 0 0 3 0;
#X connect 1 0 4 0;
#X connect 2 0 1 1;
#X connect 3 0 1 0;
#X restore 251 265 pd m_button;
#X obj 268 239 moses 56;
#X obj 220 181 moses 47;
#X obj 350 256 moses 63;
#N canvas 1 98 514 371 marker 0;
#X obj 110 28 inlet;
#X obj 110 102 pack;
#X obj 151 79 r \$0-ctl-val;
#X obj 110 144 route 58 59 60 61 62;
#X msg 114 306 \; /nanoKontrol/track/left \$1;
#X msg 134 262 \; /nanoKontrol/track/right \$1;
#X msg 151 223 \; /nanoKontrol/marker/set \$1;
#X msg 171 180 \; /nanoKontrol/marker/left \$1;
#X msg 249 140 \; /nanoKontrol/marker/right \$1;
#X connect 0 0 1 0;
#X connect 1 0 3 0;
#X connect 2 0 1 1;
#X connect 3 0 4 0;
#X connect 3 1 5 0;
#X connect 3 2 6 0;
#X connect 3 3 7 0;
#X connect 3 4 8 0;
#X restore 336 285 pd marker;
#X obj 413 289 moses 72;
#N canvas 1 83 450 300 r_button 0;
#X obj 110 28 inlet;
#X obj 110 102 pack;
#X obj 151 79 r \$0-ctl-val;
#X obj 110 65 - 63;
#X msg 110 139 \; /nanoKontrol/r/\$1 \$2;
#X connect 0 0 3 0;
#X connect 1 0 4 0;
#X connect 2 0 1 1;
#X connect 3 0 1 0;
#X restore 397 318 pd r_button;
#X text 217 15 messages are sent as \; /nanoKontrol/slider/<num> <value>
\; /nanoKontrol/knob/<num> <value> \; /nanoKontrol/<s \, m \, r>/<num>
<value> \; /nanoKontrol/rewind \, /nanoKontrol/ffwd \; /nanoKontrol/stop
\, /nanoKontrol/play \; /nanoKontrol/record \, /nanoKontrol/cycle \;
/nanoKontrol/marker/<left \, right \, set> \; /nanoKontrol/track/<left
\, right> \;;
#X connect 0 0 1 0;
#X connect 0 1 1 1;
#X connect 1 0 2 0;
#X connect 1 1 4 0;
#X connect 2 0 5 0;
#X connect 2 1 3 0;
#X connect 3 0 6 0;
#X connect 3 1 7 0;
#X connect 7 0 8 0;
#X connect 7 1 12 0;
#X connect 11 0 10 0;
#X connect 11 1 13 0;
#X connect 12 0 9 0;
#X connect 12 1 11 0;
#X connect 13 0 14 0;
#X connect 13 1 15 0;
#X connect 15 0 16 0;
