#N canvas 1 80 450 355 10;
#X obj 136 178 tabplay~;
#X msg 181 117 set beat\$1 \, bang;
#X msg 136 142 set kitch\$1 \, bang;
#X msg 249 171 set berk\$1 \, bang;
#X obj 209 -37 r sampnum;
#X obj 136 203 throw~ player;
#X obj 155 50 pack;
#X obj 150 12 f;
#X obj 150 -10 t b f;
#X obj 129 -39 r player-\$1;
#X obj 155 77 route 0 1 2 3;
#X msg 246 199 set mode\$1 \, bang;
#X connect 0 0 5 0;
#X connect 1 0 0 0;
#X connect 2 0 0 0;
#X connect 3 0 0 0;
#X connect 4 0 7 1;
#X connect 6 0 10 0;
#X connect 7 0 6 0;
#X connect 8 0 7 0;
#X connect 8 1 6 1;
#X connect 9 0 8 0;
#X connect 10 0 2 0;
#X connect 10 1 11 0;
#X connect 10 2 1 0;
#X connect 10 3 3 0;
#X connect 11 0 0 0;
